<svg width="108" height="33" viewBox="0 0 108 33" fill="none" xmlns="http://www.w3.org/2000/svg">
<path fill-rule="evenodd" clip-rule="evenodd" d="M23.379 0C23.5504 0 23.6276 0.0171424 23.7261 0.0814262C23.799 0.128568 23.889 0.239993 24.0347 0.527128L24.0733 20.6008L24.1547 20.9137C24.2018 21.0808 24.2747 21.3037 24.3176 21.4022C24.3604 21.5051 24.4547 21.6851 24.5275 21.8051C24.6047 21.9251 24.7247 22.0794 24.8018 22.1522C24.879 22.2251 25.0161 22.3236 25.1061 22.3751C25.1961 22.4308 25.3718 22.5036 25.4918 22.5465C25.6118 22.5851 25.8647 22.6365 26.0532 22.6579C26.3061 22.6879 26.5075 22.6879 26.7989 22.6622C27.0218 22.6408 27.3903 22.5808 27.6175 22.5294C27.8489 22.4779 28.1917 22.3836 28.3846 22.3279C28.646 22.2422 28.766 22.2251 28.8946 22.2422C28.9846 22.2551 29.1131 22.2979 29.1817 22.3451C29.2503 22.3879 29.3445 22.4822 29.3917 22.5508C29.4388 22.6236 29.5374 22.9236 29.6188 23.2451C29.696 23.5536 29.7731 23.9136 29.786 24.0465C29.8074 24.2522 29.7988 24.3036 29.7217 24.4407C29.6745 24.5307 29.5674 24.6507 29.4731 24.715C29.3831 24.7836 29.0917 24.9036 28.8003 25.0021C28.5217 25.0964 28.1532 25.2036 27.9817 25.2464C27.8146 25.2893 27.476 25.3578 27.236 25.3964C26.9403 25.4478 26.5675 25.4778 26.0704 25.495C25.6204 25.5036 25.2047 25.495 24.9818 25.4693C24.7804 25.4478 24.459 25.3964 24.2704 25.3536C24.0818 25.315 23.7519 25.225 23.5419 25.1521C23.3319 25.0836 23.0276 24.9593 22.869 24.8779C22.7105 24.7964 22.479 24.6636 22.359 24.5736C22.239 24.4879 22.0333 24.3079 21.9048 24.1665C21.7762 24.0293 21.6048 23.8193 21.5233 23.6993C21.4462 23.5793 21.3219 23.3479 21.2448 23.1893C21.1719 23.0308 21.0691 22.7565 21.0219 22.5894C20.9705 22.4179 20.9062 22.1222 20.8719 21.9337C20.8419 21.7408 20.7991 21.3551 20.7777 21.0765C20.7562 20.7466 20.7391 17.2281 20.7391 11.1383C20.7391 3.1242 20.7477 1.69709 20.7905 1.61138C20.8205 1.55567 20.9534 1.40567 21.0905 1.27282C21.2276 1.13997 21.4633 0.94283 21.6133 0.831405C21.7633 0.719979 22.0162 0.552841 22.179 0.458558C22.3376 0.368561 22.6247 0.227136 22.8133 0.149996C23.079 0.0385703 23.2119 0.00428559 23.379 0ZM36.6258 1.15282C36.7072 1.16568 36.8058 1.19139 36.8443 1.21282C36.8829 1.22996 36.9643 1.28996 37.02 1.34139C37.0758 1.3971 37.1443 1.52139 37.1743 1.61995C37.2172 1.77424 37.2258 2.27565 37.2258 7.79549L39.2914 7.80406C41.0742 7.81263 41.3742 7.82121 41.4856 7.87263C41.5542 7.90263 41.6528 7.98406 41.7942 8.18119V9.09831C41.7942 9.97257 41.7899 10.0197 41.7171 10.1183C41.6742 10.174 41.5971 10.2511 41.5413 10.294C41.4471 10.3626 41.3785 10.3668 39.3343 10.3754C37.3543 10.384 37.2258 10.3883 37.2258 10.4483C37.2258 10.4826 37.2 12.6511 37.1743 15.2653C37.1358 18.5738 37.1315 20.1294 37.1572 20.3823C37.1786 20.5837 37.2172 20.8537 37.2472 20.9865C37.2772 21.1151 37.3372 21.3122 37.38 21.4237C37.4229 21.5308 37.5086 21.7065 37.5729 21.8051C37.6372 21.9037 37.7743 22.0665 37.8772 22.1608C37.98 22.2551 38.1643 22.3836 38.2929 22.4436C38.4171 22.5036 38.64 22.5765 38.79 22.6108C38.94 22.6408 39.2357 22.6665 39.4457 22.6665C39.6728 22.6665 40.02 22.6365 40.3028 22.5851C40.5599 22.5422 40.9928 22.4436 41.2585 22.3665C41.5242 22.2894 41.7985 22.2251 41.8756 22.2251C41.9528 22.2251 42.077 22.2551 42.1585 22.2894C42.2356 22.3279 42.347 22.4136 42.3985 22.4822C42.4542 22.5508 42.5227 22.6794 42.5527 22.7693C42.5827 22.8593 42.647 23.0993 42.6985 23.2965C42.7499 23.4979 42.8099 23.7722 42.827 23.9093C42.857 24.0765 42.857 24.2007 42.8313 24.2993C42.8099 24.3807 42.7456 24.5007 42.6899 24.565C42.6342 24.6293 42.4885 24.7364 42.3727 24.7964C42.2528 24.8607 41.9613 24.9807 41.7213 25.0579C41.4813 25.1393 41.0956 25.2464 40.8642 25.2978C40.6371 25.3493 40.2257 25.4178 39.9557 25.4521C39.5828 25.495 39.2786 25.5078 38.6829 25.4907C38.19 25.4821 37.7786 25.4521 37.5729 25.4136C37.3929 25.3793 37.0886 25.3107 36.9001 25.2593C36.7072 25.2079 36.4158 25.1093 36.2444 25.0407C36.0729 24.9721 35.8072 24.835 35.6487 24.745C35.4901 24.6507 35.2458 24.4664 35.1044 24.3379C34.963 24.205 34.7744 24.0036 34.6844 23.8793C34.5944 23.7593 34.4487 23.5322 34.363 23.3693C34.2773 23.2108 34.1658 22.9579 34.1144 22.8079C34.063 22.6579 33.9901 22.3879 33.9516 22.2037C33.913 22.0237 33.8659 21.7451 33.8401 21.5865C33.8187 21.428 33.793 20.7851 33.7801 20.1637C33.7673 19.4994 33.793 17.4209 33.8359 15.1196C33.8787 12.9639 33.9173 11.0354 33.9344 10.4568H32.8416C31.7788 10.4568 31.7445 10.4526 31.5859 10.3754C31.4873 10.324 31.3931 10.2426 31.3502 10.1654C31.2816 10.0497 31.2731 9.95972 31.2645 9.23545C31.2559 8.71261 31.2688 8.37833 31.2945 8.27119C31.3202 8.18119 31.3716 8.05691 31.4145 8.0012C31.4573 7.9412 31.5602 7.86406 31.6416 7.82549C31.7702 7.76978 31.9073 7.76121 33.9687 7.76121L33.9944 7.00266C34.0116 6.58695 34.033 5.60984 34.0416 4.82558C34.0544 4.0456 34.0716 3.23562 34.1016 2.63992L34.4015 2.34422C34.5644 2.18565 34.8515 1.94994 35.0444 1.82566C35.233 1.69709 35.5287 1.52996 35.7001 1.44853C35.8672 1.3671 36.1158 1.26425 36.2444 1.21711C36.4158 1.15282 36.5229 1.13568 36.6258 1.15282ZM6.65663 6.79266C7.29518 6.80123 7.88231 6.83123 8.18659 6.86552C8.45658 6.89552 8.87228 6.95552 9.11227 6.99837C9.35227 7.04123 9.65654 7.09694 9.78511 7.12694C9.91796 7.15694 10.2865 7.25551 10.6037 7.34122C10.9251 7.42693 11.3579 7.5555 11.5679 7.62835C11.7779 7.69692 12.0993 7.81692 12.2793 7.89406C12.4593 7.96692 12.7036 8.09548 12.8236 8.17691C12.9436 8.25834 13.0936 8.39976 13.1536 8.48976C13.2179 8.57975 13.2864 8.73832 13.3079 8.84546C13.3422 8.98689 13.3507 10.6068 13.3507 15.2567C13.3507 19.5637 13.3636 21.5437 13.3936 21.6937C13.415 21.8137 13.4707 21.9808 13.5136 22.0579C13.565 22.1479 13.655 22.2337 13.7407 22.2765C13.8564 22.3408 13.9464 22.3494 14.2807 22.3451C14.5678 22.3408 14.8464 22.3065 15.2621 22.2251C15.6607 22.1437 15.8964 22.1137 15.9992 22.1265C16.0849 22.1394 16.2178 22.1822 16.2906 22.2208C16.3678 22.2551 16.4749 22.3408 16.5306 22.4094C16.5906 22.4779 16.6592 22.5894 16.6892 22.6622C16.7149 22.7308 16.7963 23.0179 16.8692 23.2965C16.9378 23.5793 17.0063 23.9136 17.0192 24.0465C17.0363 24.2179 17.0235 24.325 16.9849 24.445C16.9463 24.5522 16.8606 24.6679 16.7492 24.7664C16.6506 24.8564 16.4492 24.985 16.2992 25.0536C16.1492 25.1264 15.8878 25.2293 15.7164 25.285C15.5492 25.3407 15.2364 25.4178 15.0264 25.4607C14.8164 25.4993 14.4735 25.5507 14.2636 25.5721C13.9978 25.6021 13.7321 25.6021 13.4064 25.5764C13.1493 25.555 12.8022 25.5078 12.6436 25.4693C12.485 25.4307 12.2365 25.3578 12.0993 25.3021C11.9579 25.2507 11.7865 25.1736 11.7136 25.1307C11.6451 25.0879 11.4908 24.9764 11.3751 24.8864C11.2551 24.7921 11.0708 24.6036 10.9594 24.4664C10.8522 24.325 10.7108 24.0979 10.6465 23.965C10.5822 23.8322 10.5179 23.725 10.4965 23.7336C10.4751 23.7379 10.3208 23.8493 10.1494 23.9779C9.98225 24.1065 9.69511 24.3036 9.51512 24.415C9.33512 24.5264 9.02228 24.7022 8.82085 24.8007C8.62372 24.8993 8.29372 25.045 8.0923 25.1179C7.89516 25.195 7.54803 25.3021 7.32947 25.3578C7.1109 25.4136 6.73377 25.4864 6.49378 25.5207C6.20664 25.5636 5.82522 25.585 5.38381 25.585C5.01096 25.585 4.56097 25.5636 4.38098 25.5421C4.20098 25.5164 3.90099 25.465 3.70814 25.4264C3.51958 25.3878 3.2153 25.3064 3.0353 25.2421C2.85531 25.1821 2.54246 25.0493 2.34532 24.9464C2.1439 24.8436 1.85677 24.6636 1.70677 24.5522C1.55677 24.4407 1.32107 24.2222 1.17964 24.0722C1.03822 23.9179 0.836795 23.6522 0.72537 23.4722C0.613944 23.2965 0.463949 23.0051 0.391094 22.8251C0.318239 22.6451 0.223956 22.3665 0.1811 22.2037C0.138244 22.0451 0.0782454 21.7322 0.0482462 21.5137C0.00110473 21.1965 -0.00746646 20.9308 0.00539032 20.2366C0.0225327 19.5337 0.039675 19.2937 0.103959 18.998C0.146815 18.8009 0.232527 18.4923 0.288239 18.3166C0.348238 18.1409 0.455377 17.8795 0.528233 17.7338C0.601088 17.5881 0.738227 17.3566 0.828224 17.2152C0.922507 17.0738 1.14536 16.8124 1.32535 16.6324C1.50535 16.4481 1.79248 16.2081 1.96391 16.0967C2.13104 15.981 2.44389 15.8095 2.65389 15.7067C2.86388 15.6081 3.18959 15.4753 3.38244 15.411C3.571 15.3467 3.89242 15.2567 4.08956 15.2096C4.29098 15.1667 4.61669 15.0981 4.81811 15.0681C5.01953 15.0381 5.3281 14.9953 5.51238 14.9739C5.69237 14.9524 6.31378 14.9224 6.89234 14.901C7.47518 14.8839 8.44372 14.8539 10.1494 14.811V10.0926L9.86654 9.94686C9.71226 9.86972 9.41226 9.74544 9.20227 9.67687C8.99228 9.6083 8.61943 9.50973 8.36658 9.4583C8.11802 9.40687 7.74088 9.34688 7.53089 9.32545C7.3209 9.29973 6.7552 9.27831 6.27521 9.27831C5.65809 9.27831 5.27238 9.29545 4.96382 9.33831C4.72383 9.37259 4.20098 9.4583 3.79814 9.52687C3.39958 9.59544 2.96245 9.65544 2.82531 9.65544C2.69246 9.65544 2.5296 9.63401 2.46103 9.6083C2.39675 9.5783 2.28961 9.49259 2.22533 9.41544C2.13961 9.31259 2.05819 9.12831 1.94676 8.78118C1.85677 8.51119 1.77534 8.21548 1.7582 8.12548C1.74534 8.00977 1.75391 7.9112 1.79248 7.80406C1.83105 7.71406 1.91676 7.59835 2.00676 7.52121C2.09247 7.45264 2.25104 7.35836 2.36247 7.31979C2.47389 7.27693 2.84245 7.19122 3.18101 7.12265C3.51958 7.05408 4.03813 6.96409 4.32955 6.92123C4.61669 6.88266 5.0281 6.83123 5.2381 6.81409C5.44809 6.79695 6.08665 6.78838 6.65663 6.79266ZM5.82094 17.2838C5.56809 17.3181 5.2081 17.3866 5.01953 17.4381C4.83097 17.4852 4.55669 17.5838 4.41955 17.6524C4.27813 17.7209 4.0767 17.8581 3.96528 17.9523C3.85814 18.0466 3.70386 18.2223 3.62672 18.3423C3.54957 18.4623 3.44672 18.6852 3.39958 18.8352C3.34815 18.9852 3.28387 19.2809 3.24958 19.4909C3.20673 19.7694 3.19816 20.0309 3.21101 20.438C3.21958 20.7808 3.24958 21.1108 3.28815 21.278C3.32244 21.428 3.41672 21.6851 3.49386 21.8522C3.59243 22.0579 3.69957 22.2122 3.83671 22.3494C3.97155 22.4844 4.12798 22.5959 4.29955 22.6794C4.44526 22.7479 4.69383 22.8379 4.85668 22.8808C5.01525 22.9193 5.34095 22.9708 5.58095 22.9879C5.88094 23.0136 6.15521 23.0136 6.44663 22.9879C6.68234 22.9708 7.04233 22.9193 7.24804 22.8808C7.45375 22.8422 7.80088 22.7565 8.01945 22.6922C8.2423 22.6322 8.59372 22.5079 8.80371 22.4265C9.0137 22.3408 9.29227 22.2165 9.42084 22.1522C9.55369 22.0837 9.80225 21.9422 9.97796 21.8351L10.2951 21.6422V17.0524C9.85797 17.0567 8.95371 17.0995 8.00231 17.1424C7.0509 17.1895 6.0695 17.2538 5.82094 17.2838ZM53.1767 7.03694C53.5924 7.03266 54.0896 7.0498 54.2867 7.07123C54.4795 7.09265 54.8353 7.15265 55.0753 7.19979C55.3152 7.25122 55.6709 7.34979 55.8595 7.41407C56.0481 7.48264 56.3266 7.58978 56.4766 7.65835C56.6266 7.72692 56.8666 7.85549 57.0038 7.9412C57.1452 8.02691 57.3895 8.19834 57.5523 8.32691C57.7109 8.45119 57.9509 8.66547 58.0794 8.80261C58.2123 8.93974 58.3923 9.14974 58.4866 9.27402C58.5766 9.39402 58.7223 9.60401 58.808 9.74544C58.8937 9.88686 59.0437 10.1654 59.138 10.3668C59.2323 10.564 59.3608 10.8854 59.4208 11.074C59.4851 11.2668 59.5708 11.5454 59.6094 11.6954C59.648 11.8454 59.708 12.1582 59.7508 12.3854C59.7894 12.6168 59.8408 13.0025 59.8665 13.2425C59.8965 13.5339 59.9051 14.1425 59.8923 15.081C59.8751 16.2981 59.8665 16.5038 59.8108 16.6324C59.7765 16.7095 59.7123 16.8167 59.6694 16.8638C59.6265 16.9109 59.5451 16.9709 59.4894 17.0009C59.4037 17.0438 58.5937 17.0524 49.144 17.0481L49.1697 17.8795C49.1826 18.3338 49.2211 18.878 49.2511 19.0923C49.2854 19.3023 49.3497 19.628 49.3968 19.8209C49.444 20.0094 49.5383 20.3137 49.6025 20.4937C49.6711 20.6737 49.8083 20.9608 49.9111 21.128C50.0097 21.2951 50.1897 21.5394 50.314 21.6722C50.434 21.8051 50.6225 21.9808 50.7297 22.0665C50.8411 22.1479 51.0511 22.2851 51.2011 22.3665C51.3511 22.4436 51.6468 22.5679 51.8568 22.6408C52.0668 22.7094 52.4353 22.8036 52.6753 22.8465C53.0567 22.9193 53.241 22.9279 54.0938 22.9279C54.9253 22.9322 55.1524 22.9193 55.5681 22.8551C55.8381 22.8122 56.3481 22.7094 56.6952 22.6279C57.0466 22.5465 57.5866 22.4308 57.8995 22.3665C58.3966 22.2679 58.4823 22.2594 58.6237 22.2979C58.7394 22.3279 58.8423 22.3922 58.958 22.5079C59.078 22.6322 59.1423 22.7351 59.1808 22.8808C59.2151 22.9879 59.2923 23.2836 59.3566 23.5365C59.4208 23.785 59.4808 24.0893 59.4894 24.2093C59.5023 24.3636 59.4937 24.4622 59.4551 24.5393C59.4251 24.5993 59.3437 24.7022 59.2751 24.7707C59.2066 24.8393 59.0394 24.9507 58.898 25.015C58.7566 25.0793 58.4652 25.1993 58.2423 25.2807C58.0237 25.3664 57.6637 25.4821 57.4409 25.5378C57.2223 25.5978 56.8538 25.6793 56.6223 25.7221C56.3952 25.7607 56.0009 25.8207 55.7524 25.8507C55.4995 25.8807 55.0238 25.9193 54.6938 25.9364C54.3638 25.9535 53.8067 25.9535 53.4596 25.9364C53.1082 25.9235 52.6239 25.8807 52.3839 25.8507C52.1439 25.8164 51.7582 25.7478 51.5268 25.6964C51.2996 25.645 50.9396 25.5464 50.7297 25.4778C50.5197 25.405 50.1982 25.285 50.0182 25.2036C49.8383 25.1264 49.5425 24.9764 49.3626 24.8736C49.1826 24.7707 48.904 24.5864 48.7454 24.4664C48.5826 24.3507 48.2997 24.1022 48.1112 23.9222C47.9269 23.7379 47.6697 23.4593 47.5455 23.2965C47.4169 23.1379 47.2283 22.8679 47.1212 22.6965C47.0183 22.5251 46.8341 22.1822 46.7141 21.9337C46.5941 21.6808 46.4183 21.2394 46.3241 20.948C46.2298 20.6566 46.1098 20.2323 46.0584 20.0009C46.0069 19.7694 45.9298 19.3537 45.8912 19.0709C45.8526 18.7923 45.7969 18.3166 45.7755 18.0166C45.7498 17.6652 45.7412 17.0609 45.7541 16.341C45.7627 15.6596 45.7969 15.0124 45.8312 14.7167C45.8612 14.4467 45.9298 13.9967 45.9812 13.7182C46.0326 13.4353 46.1269 12.9939 46.1955 12.7325C46.2641 12.4711 46.3798 12.0854 46.4526 11.8754C46.5255 11.6654 46.6883 11.2797 46.8126 11.0225C46.9369 10.7611 47.1212 10.4097 47.224 10.2383C47.3269 10.0669 47.5026 9.80543 47.614 9.65544C47.7297 9.50544 47.9226 9.26545 48.0469 9.12831C48.1754 8.98689 48.4326 8.74261 48.6211 8.58404C48.8097 8.42119 49.0926 8.20691 49.2554 8.10405C49.414 7.99691 49.7354 7.82121 49.9625 7.70978C50.194 7.59835 50.5539 7.45264 50.7639 7.38407C50.9739 7.31551 51.3168 7.22551 51.5268 7.18265C51.7368 7.1398 52.0239 7.08837 52.1653 7.07123C52.3068 7.05408 52.761 7.03694 53.1767 7.03694ZM51.8396 9.68972C51.6982 9.73258 51.4753 9.82686 51.3468 9.89115C51.2182 9.95543 50.9954 10.1011 50.8539 10.2083C50.7168 10.3197 50.5239 10.4997 50.434 10.6068C50.344 10.714 50.2111 10.8854 50.1468 10.984C50.0782 11.0825 49.954 11.3054 49.8683 11.4768C49.7868 11.6482 49.6583 11.9654 49.5897 12.1882C49.5168 12.4068 49.4268 12.7582 49.3883 12.9682C49.3454 13.1782 49.294 13.4825 49.2726 13.6453C49.2511 13.8039 49.2211 14.1425 49.2083 14.3996L49.1826 14.8667L56.7338 14.8624C56.7681 14.7082 56.7723 14.2453 56.7595 13.7353C56.7466 13.1011 56.7209 12.6982 56.6781 12.4582C56.6481 12.2696 56.5581 11.9354 56.4852 11.7125C56.4124 11.494 56.2752 11.1811 56.1852 11.0225C56.0781 10.8254 55.9238 10.6283 55.7138 10.4183C55.5124 10.2169 55.311 10.0583 55.131 9.95543C54.981 9.874 54.7367 9.76258 54.5867 9.71115C54.4367 9.66401 54.1667 9.59544 53.9867 9.56544C53.781 9.53116 53.4596 9.50973 53.1296 9.50973C52.8382 9.51401 52.4867 9.53544 52.3496 9.56116C52.2082 9.58687 51.9768 9.64258 51.8396 9.68972ZM71.6519 7.70549C71.9862 7.70978 72.3505 7.73549 72.4747 7.76121C72.5947 7.78264 72.7362 7.82549 72.7919 7.85549C72.8476 7.8812 72.9247 7.9712 72.9633 8.05263C73.0019 8.12977 73.0362 8.25405 73.0362 8.32691C73.0362 8.39547 72.9719 8.85832 72.8947 9.35545C72.8005 9.964 72.7362 10.294 72.689 10.3754C72.6462 10.4483 72.5562 10.5254 72.4533 10.5726C72.2905 10.6454 72.2905 10.6454 71.8191 10.5811C71.4848 10.5383 71.2319 10.5254 70.9619 10.5383C70.7434 10.5511 70.4648 10.594 70.3062 10.6368C70.1562 10.6797 69.912 10.774 69.762 10.8425C69.612 10.9111 69.4063 11.0225 69.3077 11.0825C69.2048 11.1468 68.9948 11.3011 68.832 11.4254C68.6734 11.5497 68.4506 11.7468 68.3392 11.8625C68.2234 11.9825 68.0563 12.1711 67.7949 12.4968V18.6166C67.7949 23.1336 67.7863 24.7879 67.752 24.9293C67.7263 25.0621 67.6706 25.165 67.5763 25.2678C67.4906 25.3578 67.3835 25.4307 67.2849 25.4607C67.1649 25.495 66.8521 25.5036 64.9707 25.4864L64.8293 25.3921C64.7478 25.3407 64.6535 25.2336 64.6107 25.1521C64.5378 25.0107 64.5378 24.9293 64.5293 16.8509C64.525 12.3596 64.525 8.63547 64.5378 8.57118C64.5507 8.50261 64.615 8.3869 64.6921 8.30548C64.7693 8.22405 64.8893 8.13834 64.9578 8.11263C65.0435 8.08263 65.4035 8.06977 66.0849 8.06977C66.9506 8.06977 67.1092 8.07834 67.2592 8.13405C67.3663 8.17262 67.4649 8.24119 67.5206 8.31405C67.5677 8.38262 67.6235 8.49833 67.6449 8.57976C67.6706 8.66118 67.6877 8.87546 67.6877 9.06403C67.6877 9.24831 67.6963 9.42402 67.7049 9.45402C67.7177 9.49259 67.842 9.39402 68.1334 9.11974C68.3563 8.90975 68.6906 8.63547 68.8706 8.51547C69.0506 8.39547 69.312 8.24119 69.4534 8.16834C69.5906 8.09977 69.8691 7.98834 70.0705 7.91977C70.272 7.85549 70.5719 7.77406 70.7434 7.74406C70.9619 7.70549 71.2276 7.69264 71.6519 7.70549ZM94.7641 7.98834C95.8184 7.99691 95.8827 8.0012 96.0369 8.07406C96.1269 8.1212 96.2512 8.21119 96.3112 8.27976C96.3712 8.35262 97.2069 9.6083 98.1669 11.0697C99.1268 12.5354 99.924 13.731 99.9368 13.7268C99.9497 13.7225 100.738 12.5354 101.69 11.0954C102.637 9.65115 103.464 8.40405 103.52 8.32691C103.58 8.24976 103.708 8.14262 103.987 7.99691L105.097 7.98406C106.01 7.97549 106.237 7.98406 106.352 8.02691C106.434 8.05691 106.545 8.13405 106.601 8.19405C106.682 8.28405 106.699 8.33976 106.699 8.48976C106.699 8.58833 106.678 8.71689 106.648 8.77261C106.622 8.82832 105.504 10.5597 104.171 12.6254C102.834 14.6867 101.737 16.3924 101.724 16.4138C101.715 16.431 102.915 18.2866 104.39 20.528C105.868 22.7736 107.085 24.6464 107.107 24.6936C107.124 24.7364 107.137 24.8693 107.137 24.985C107.137 25.1264 107.115 25.2207 107.072 25.2807C107.038 25.3321 106.957 25.3921 106.892 25.4178C106.802 25.4564 106.481 25.465 105.598 25.465C104.844 25.465 104.372 25.4521 104.278 25.4264C104.201 25.4007 104.072 25.345 104 25.2978C103.897 25.2336 103.738 25.0236 103.404 24.5093C103.151 24.1236 102.277 22.7736 101.458 21.5137C100.644 20.2494 99.9583 19.2123 99.9411 19.208C99.9283 19.2037 99.0626 20.5151 98.0255 22.1222C96.9326 23.815 96.0755 25.1093 95.9855 25.195C95.9041 25.2764 95.7584 25.3664 95.6555 25.405C95.497 25.4607 95.3212 25.465 94.3013 25.465C93.4099 25.465 93.097 25.4564 93.007 25.4178C92.9427 25.3921 92.8527 25.3236 92.8056 25.2636C92.7456 25.1864 92.7242 25.1093 92.7242 24.985C92.7242 24.8864 92.7456 24.7579 92.7713 24.6936C92.8013 24.625 94.0227 22.7479 95.4927 20.5108C96.9626 18.278 98.1626 16.4438 98.1583 16.431C98.1583 16.4224 97.0698 14.7424 95.7455 12.6982C94.417 10.654 93.2942 8.90546 93.247 8.81546C93.1999 8.72546 93.1613 8.59261 93.1613 8.51547C93.1613 8.44262 93.1827 8.33548 93.2127 8.27976C93.2384 8.22405 93.2942 8.15548 93.3284 8.12548C93.367 8.09548 93.4527 8.04834 93.5256 8.02263C93.6199 7.99263 93.9541 7.97977 94.7641 7.98834ZM76.0532 8.05263H77.4118C78.7489 8.05263 78.7703 8.05263 78.9117 8.13405C78.9931 8.17691 79.0917 8.26691 79.1303 8.32691C79.1731 8.39119 80.1631 11.2068 81.3331 14.5839C82.7302 18.6123 83.4716 20.7037 83.4887 20.6651C83.5059 20.6308 84.4915 17.8966 85.6872 14.5924C86.8786 11.284 87.8857 8.51547 87.9157 8.43404C87.95 8.35262 88.0443 8.24119 88.2629 8.06977L89.4843 8.0612C90.4142 8.05263 90.7314 8.0612 90.8128 8.09548C90.8728 8.1212 90.9371 8.18977 90.9628 8.25405C90.9928 8.32691 90.9971 8.41262 90.9756 8.52404C90.9628 8.61404 89.3728 12.9168 87.4486 18.0895C85.5244 23.2579 83.8659 27.6849 83.763 27.9249C83.6644 28.1649 83.5016 28.5206 83.403 28.7178C83.3044 28.9149 83.1287 29.2406 83.0045 29.4463C82.8845 29.652 82.683 29.9606 82.5587 30.1277C82.4345 30.2991 82.173 30.6077 81.9716 30.8177C81.7702 31.0234 81.4659 31.302 81.2988 31.4305C81.1274 31.5591 80.7759 31.7691 80.5145 31.8977C80.2531 32.0262 79.9103 32.1719 79.7517 32.2234C79.5931 32.2748 79.2631 32.3562 79.0231 32.4076C78.7831 32.4548 78.3717 32.5148 78.1146 32.5362C77.8232 32.5619 77.3303 32.5748 76.8418 32.5619C76.3318 32.5491 75.9204 32.5191 75.7104 32.4805C75.4832 32.4376 75.359 32.3948 75.299 32.3391C75.2518 32.2962 75.1918 32.1719 75.1575 32.0605C75.1147 31.9062 75.1061 31.7777 75.1275 31.4948C75.1404 31.2934 75.1747 30.9763 75.2004 30.7834C75.2304 30.5948 75.2775 30.3634 75.3118 30.2734C75.3418 30.1834 75.4147 30.0677 75.4661 30.012C75.5218 29.9563 75.6161 29.9006 75.6761 29.8877C75.7361 29.8791 76.0532 29.8963 76.3832 29.9306C76.7861 29.9734 77.1375 29.9863 77.4418 29.9734C77.6903 29.9606 78.0675 29.9177 78.2774 29.8749C78.4874 29.832 78.7917 29.742 78.9503 29.6734C79.1088 29.6006 79.3317 29.4934 79.4388 29.4292C79.5503 29.3649 79.7688 29.1806 79.9317 29.0177C80.0945 28.8592 80.3131 28.5978 80.4202 28.4349C80.5231 28.2763 80.6817 27.9978 80.7674 27.8178C80.8531 27.6378 81.1574 26.9135 81.4445 26.215C81.7273 25.5121 81.963 24.9121 81.963 24.8821C81.9673 24.8521 80.5874 21.1794 78.9031 16.7224C76.3361 9.934 75.8389 8.58833 75.8432 8.43833C75.8432 8.29691 75.8647 8.24548 75.9461 8.15977L76.0532 8.05263Z" fill="#0093D0"/>
</svg>
