<svg width="116" height="34" viewBox="0 0 116 34" fill="none" xmlns="http://www.w3.org/2000/svg">
<path d="M19.8543 31.4664C23.2281 30.8715 26.6015 30.2745 29.9746 29.6754L30.0697 29.6551L24.864 23.4631C22.001 20.0576 19.6585 17.2581 19.6585 17.2422C19.6585 17.2116 25.0336 2.40935 25.0639 2.35658C25.074 2.33914 28.7319 8.6545 33.9311 17.6658C38.7986 26.1022 42.8116 33.058 42.8489 33.1231L42.9167 33.2416L26.3731 33.2394L9.82924 33.2372L19.8543 31.4664ZM83.2978 29.9688C80.7793 29.8075 79.3149 28.3736 78.9267 25.6894C78.8234 24.9755 78.8229 24.9568 78.8125 20.3217L78.8022 15.8353H81.0313L81.0401 20.1745C81.0479 24.0857 81.0529 24.5442 81.0902 24.8192C81.242 25.9358 81.5442 26.6868 82.0584 27.2256C82.47 27.6569 82.9519 27.9096 83.6189 28.0435C83.9338 28.1067 84.8291 28.1067 85.1158 28.0437C85.792 27.895 86.3341 27.6006 86.8123 27.1226C87.3574 26.578 87.7604 25.805 87.9555 24.9312L88.0211 24.6364L88.0286 20.2604L88.0358 15.8844H90.3115V29.6429H88.0593V28.5515C88.0593 27.8099 88.0512 27.4626 88.034 27.4685C88.0201 27.473 87.9621 27.5616 87.9054 27.6652C87.5172 28.3727 86.8707 29.0201 86.1623 29.41C85.313 29.8773 84.4615 30.0434 83.2978 29.9688ZM108.858 29.9579C107.969 29.891 107.033 29.5853 106.268 29.1119C104.656 28.1148 103.702 26.4707 103.422 24.208C103.326 23.4252 103.314 22.3733 103.395 21.708C103.575 20.2216 104.159 18.7622 104.991 17.7204C105.204 17.4535 105.688 16.9696 105.955 16.7566C106.674 16.1816 107.516 15.7797 108.416 15.5819C108.937 15.4679 109.856 15.4143 110.411 15.4657C111.804 15.5948 113.08 16.2505 113.947 17.2825C114.829 18.3313 115.314 19.7966 115.375 21.6008C115.385 21.8836 115.387 22.3792 115.381 22.7023L115.368 23.29L110.49 23.2961L105.613 23.3022V23.52C105.613 24.1827 105.773 24.9374 106.052 25.5795C106.292 26.1334 106.706 26.738 107.044 27.0306C107.738 27.6307 108.588 27.9898 109.517 28.0762C109.862 28.1082 110.74 28.0744 111.133 28.014C112.254 27.8418 113.319 27.4024 114.179 26.7574C114.25 26.7036 114.322 26.651 114.394 26.5998C114.42 26.5841 114.426 26.7823 114.425 27.6159L114.424 28.6514L114.194 28.794C113.22 29.3958 112.105 29.7824 110.925 29.927C110.572 29.9702 109.28 29.9898 108.858 29.9579ZM113.104 21.224C113.104 20.1139 112.636 18.8808 111.974 18.2458C111.502 17.7927 110.931 17.5158 110.252 17.4107C109.93 17.361 109.253 17.3802 108.915 17.4484C108.199 17.5932 107.607 17.9079 107.09 18.4181C106.547 18.9552 106.14 19.6076 105.883 20.3507C105.791 20.618 105.683 21.0567 105.65 21.3009L105.634 21.4172H113.104L113.104 21.224ZM46.9358 29.6123C46.9415 29.5953 48.598 25.2439 50.6167 19.9423L54.2874 10.3027H56.646L56.7439 10.5535C57.0428 11.3204 64.0922 29.6219 64.0922 29.6315C64.0922 29.6376 63.5274 29.6429 62.8375 29.6426L61.5829 29.6424L60.5667 26.9375L59.5506 24.2324H51.3694L51.3337 24.3242C51.314 24.3748 50.8801 25.5919 50.369 27.0289L49.4401 29.642L48.1826 29.6424C47.1874 29.6426 46.9275 29.6365 46.9358 29.6123ZM58.8042 22.1681C58.8042 22.1638 58.1204 20.3103 57.2847 18.0492C55.7212 13.819 55.634 13.5645 55.5104 12.8853C55.4526 12.567 55.4232 12.5582 55.3887 12.8487C55.3643 13.0563 55.2579 13.5212 55.1755 13.7789C55.1347 13.9069 54.4308 15.839 53.6112 18.0729C52.7913 20.3066 52.1208 22.1435 52.1208 22.155C52.1208 22.1666 53.6245 22.176 55.4624 22.176C57.3004 22.176 58.8042 22.1723 58.8042 22.1681ZM64.851 29.2905V28.9383L68.9268 23.3356L73.0023 17.7328L69.3123 17.7204L65.6222 17.7081L65.6157 16.7718L65.6094 15.8353H76.2838V16.4679L72.2078 22.1012C69.9658 25.1997 68.1315 27.7399 68.1315 27.7463C68.1315 27.7526 69.9437 27.7578 72.1587 27.7578H76.1859V29.6429H64.851V29.2905ZM94.7591 29.6265C94.7501 29.6176 94.7427 26.5108 94.7427 22.7228V15.8353H96.9706V17.2553C96.9706 18.0363 96.9799 18.6752 96.9917 18.6752C97.0033 18.6752 97.0573 18.5474 97.1121 18.3911C97.3626 17.6752 97.7967 17.0062 98.3565 16.4744C98.8604 15.9956 99.4365 15.7091 100.116 15.5994C100.307 15.5689 100.469 15.5628 100.851 15.5728C101.33 15.5852 101.581 15.6203 101.873 15.7156L101.965 15.7457V18.0581L101.702 17.9264C101.237 17.6937 100.778 17.6015 100.226 17.6303C99.8676 17.6488 99.6321 17.6951 99.3451 17.8026C98.7626 18.0178 98.2687 18.4213 97.9415 18.9491C97.457 19.7218 97.1116 20.715 97.0098 21.628C96.9915 21.7918 96.9808 23.126 96.9764 25.7563L96.9699 29.6429H95.8727C95.2691 29.6429 94.768 29.6354 94.7591 29.6265ZM0 29.5781C0 29.5694 2.45284 25.3115 5.4508 20.1161L10.9016 10.6697L17.2538 5.33906C20.7474 2.40717 23.6154 0.00448047 23.627 0.000119482C23.6383 -0.00424151 23.5925 0.111325 23.5247 0.256982C23.4571 0.402857 20.3532 7.06035 16.6271 15.0516L9.85235 29.5814L4.92618 29.5877C2.21691 29.5912 0 29.5868 0 29.5781Z" fill="#0089D6"/>
</svg>
