<svg width="116" height="15" viewBox="0 0 116 15" fill="none" xmlns="http://www.w3.org/2000/svg">
<path d="M21.603 1.77921H23.1687V9.7263C23.1687 11.8317 22.2475 13.2847 20.0887 13.2847C19.4503 13.2944 18.8151 13.1941 18.2107 12.9882V11.466C18.7262 11.6658 19.2749 11.7664 19.8278 11.7625C21.1503 11.7625 21.607 10.9717 21.607 9.83108L21.603 1.77921Z" fill="#253858"/>
<path d="M26.0214 1.16835C26.161 1.15836 26.3012 1.17851 26.4324 1.22743C26.5635 1.27635 26.6826 1.3529 26.7816 1.4519C26.8806 1.55089 26.9572 1.67001 27.0061 1.80118C27.055 1.93235 27.0752 2.07251 27.0652 2.21215C27.0652 2.48898 26.9552 2.75448 26.7595 2.95023C26.5637 3.14598 26.2982 3.25595 26.0214 3.25595C25.7446 3.25595 25.4791 3.14598 25.2833 2.95023C25.0876 2.75448 24.9776 2.48898 24.9776 2.21215C24.9676 2.07251 24.9877 1.93235 25.0367 1.80118C25.0856 1.67001 25.1621 1.55089 25.2611 1.4519C25.3601 1.3529 25.4792 1.27635 25.6104 1.22743C25.7416 1.17851 25.8817 1.15836 26.0214 1.16835ZM25.2563 4.5093H26.7528V13.2076H25.2563V4.5093Z" fill="#253858"/>
<path d="M29.0122 4.50731H30.4731V6.03742C30.9772 5.01141 31.857 4.27996 33.5531 4.38474V5.84566C31.6395 5.64797 30.4731 6.22918 30.4731 8.07164V13.2116H29.0122V4.50731Z" fill="#253858"/>
<path d="M40.5632 11.6399C40.0058 12.7885 38.962 13.3796 37.6236 13.3796C35.3107 13.3796 34.1443 11.4146 34.1443 8.85647C34.1443 6.40315 35.3621 4.33334 37.7976 4.33334C39.0667 4.33334 40.0413 4.90664 40.5652 6.03742V4.50731H42.0617V13.2056H40.5652L40.5632 11.6399ZM38.0229 11.9879C39.3633 11.9879 40.5632 11.1358 40.5632 9.2044V8.50063C40.5632 6.56921 39.4681 5.71717 38.191 5.71717C36.5027 5.71717 35.6329 6.83015 35.6329 8.84856C35.6408 10.9441 36.475 11.9879 38.0249 11.9879H38.0229Z" fill="#253858"/>
<path d="M50.9143 13.3796C48.7042 13.3796 47.6782 12.9447 46.7905 12.492V10.8927C47.8521 11.4502 49.487 11.8495 50.9993 11.8495C52.7212 11.8495 53.3716 11.1714 53.3716 10.1612C53.3716 9.15104 52.7449 8.61332 50.5703 8.09142C48.0004 7.46475 46.8479 6.57713 46.8479 4.69908C46.8479 2.91988 48.204 1.60327 50.8669 1.60327C52.5196 1.60327 53.5811 1.99865 54.364 2.43752V4.00322C53.2757 3.40354 52.0478 3.10338 50.8056 3.13338C49.3091 3.13338 48.4215 3.65528 48.4215 4.69908C48.4215 5.6381 49.1529 6.1086 51.1693 6.61271C53.5871 7.22159 54.9452 7.99653 54.9452 10.0565C54.9333 12.0393 53.7512 13.3796 50.9143 13.3796Z" fill="#253858"/>
<path d="M56.2559 8.83868C56.2559 6.22918 57.786 4.33334 60.3955 4.33334C63.005 4.33334 64.5015 6.22918 64.5015 8.83868C64.5015 11.4482 62.9872 13.3855 60.3955 13.3855C57.8038 13.3855 56.2559 11.4482 56.2559 8.83868ZM57.7168 8.83868C57.7168 10.4914 58.5352 11.9879 60.3955 11.9879C62.2557 11.9879 63.0405 10.4914 63.0405 8.83868C63.0405 7.186 62.2399 5.73298 60.3955 5.73298C58.551 5.73298 57.7247 7.186 57.7247 8.83868H57.7168Z" fill="#253858"/>
<path d="M68.3109 4.50732H70.5547V5.89114H68.3109V13.2056H66.85V5.89114H65.4346V4.50732H66.8441V3.55841C66.8441 1.94132 67.7495 0.844142 69.6117 0.844142C69.9527 0.842241 70.2921 0.888835 70.62 0.982524V2.36635C70.3104 2.30749 69.996 2.27836 69.6809 2.27936C68.7597 2.27936 68.2971 2.81905 68.2971 3.6019L68.3109 4.50732Z" fill="#253858"/>
<path d="M75.6175 11.7447C75.9338 11.7353 76.2484 11.6942 76.5565 11.6221V13.0653C76.2288 13.1591 75.8893 13.2057 75.5483 13.2036C73.6861 13.2036 72.7807 12.1085 72.7807 10.4894V5.89904H71.3652V4.51522H72.7748V2.66287H74.2357V4.50731H76.5486V5.89113H74.2357V10.4577C74.2436 11.2228 74.6963 11.7447 75.6175 11.7447Z" fill="#253858"/>
<path d="M76.9756 4.50729H78.6283L81.133 11.8831L83.6713 4.50729H85.0986L87.6389 11.8831L90.1456 4.50729H91.7983L88.5977 13.2056H86.6841L85.1876 8.99681L84.3968 6.31812L83.6061 8.99681L82.0898 13.2056H80.1762L76.9756 4.50729Z" fill="#253858"/>
<path d="M98.6323 11.6399C98.0749 12.7885 97.0311 13.3796 95.6927 13.3796C93.3797 13.3796 92.2134 11.4146 92.2134 8.85647C92.2134 6.40315 93.4311 4.33334 95.8667 4.33334C97.1358 4.33334 98.1104 4.90664 98.6343 6.03742V4.50731H100.131V13.2056H98.6343L98.6323 11.6399ZM96.092 11.9879C97.4324 11.9879 98.6323 11.1358 98.6323 9.2044V8.50063C98.6323 6.56921 97.5371 5.71717 96.2601 5.71717C94.5797 5.73298 93.704 6.83806 93.704 8.85647C93.704 10.9441 94.5441 11.9879 96.094 11.9879H96.092Z" fill="#253858"/>
<path d="M102.391 4.50731H103.852V6.03742C104.356 5.01141 105.235 4.27996 106.932 4.38474V5.84566C105.018 5.64797 103.852 6.22918 103.852 8.07164V13.2116H102.391V4.50731Z" fill="#253858"/>
<path d="M112.202 13.3796C108.948 13.3796 107.522 11.5016 107.522 8.83276C107.522 6.20547 108.983 4.32742 111.628 4.32742C114.307 4.32742 115.385 6.18965 115.385 8.83276V9.51083H109.037C109.246 10.9895 110.203 11.9464 112.255 11.9464C113.158 11.9455 114.053 11.7863 114.9 11.4759V12.8597C114.187 13.2452 113.089 13.3796 112.202 13.3796ZM109.019 8.23969H113.868C113.781 6.62259 113.05 5.69938 111.555 5.69938C109.976 5.69148 109.175 6.72144 109.019 8.2298V8.23969Z" fill="#253858"/>
<path d="M14.3122 7.06936L7.8675 0.624697L7.2428 0L2.39151 4.85129L0.173444 7.06936C0.0623824 7.18056 0 7.3313 0 7.48846C0 7.64562 0.0623824 7.79636 0.173444 7.90756L4.60563 12.3397L7.2428 14.9769L12.0941 10.1256L12.1692 10.0505L14.3122 7.90756C14.4232 7.79636 14.4856 7.64562 14.4856 7.48846C14.4856 7.3313 14.4232 7.18056 14.3122 7.06936ZM7.2428 9.70258L5.02869 7.48846L7.2428 5.27434L9.45692 7.48846L7.2428 9.70258Z" fill="#2684FF"/>
<path d="M7.24276 5.27434C6.54639 4.57789 6.15387 3.6342 6.15091 2.64933C6.14795 1.66446 6.53478 0.718422 7.22695 0.0177917L2.38159 4.86117L5.01876 7.49834L7.24276 5.27434Z" fill="url(#paint0_linear_75_142)"/>
<path d="M9.46297 7.48251L7.24292 9.70256C7.58937 10.0488 7.8642 10.4599 8.05171 10.9124C8.23922 11.3649 8.33573 11.8499 8.33573 12.3397C8.33573 12.8295 8.23922 13.3145 8.05171 13.767C7.8642 14.2195 7.58937 14.6307 7.24292 14.9769L12.1001 10.1197L9.46297 7.48251Z" fill="url(#paint1_linear_75_142)"/>
<defs>
<linearGradient id="paint0_linear_75_142" x1="6.84739" y1="3.03453" x2="3.75553" y2="6.12638" gradientUnits="userSpaceOnUse">
<stop offset="0.18" stop-color="#0052CC"/>
<stop offset="1" stop-color="#2684FF"/>
</linearGradient>
<linearGradient id="paint1_linear_75_142" x1="7.66597" y1="11.9167" x2="10.7519" y2="8.83075" gradientUnits="userSpaceOnUse">
<stop offset="0.18" stop-color="#0052CC"/>
<stop offset="1" stop-color="#2684FF"/>
</linearGradient>
</defs>
</svg>
