<svg width="37" height="37" viewBox="0 0 37 37" fill="none" xmlns="http://www.w3.org/2000/svg">
<path opacity="0.25" fill-rule="evenodd" clip-rule="evenodd" d="M18.5 36C28.165 36 36 28.165 36 18.5C36 8.83502 28.165 1 18.5 1C8.83502 1 1 8.83502 1 18.5C1 28.165 8.83502 36 18.5 36Z" stroke="black" stroke-width="1.5"/>
<path d="M14.4835 14.9671C15.3029 14.9671 15.9671 14.3029 15.9671 13.4835C15.9671 12.6642 15.3029 12 14.4835 12C13.6642 12 13 12.6642 13 13.4835C13 14.3029 13.6642 14.9671 14.4835 14.9671Z" fill="#30689B"/>
<path d="M15.7198 15.958H13.2473C13.1108 15.958 13 16.0688 13 16.2053V23.623C13 23.7595 13.1108 23.8703 13.2473 23.8703H15.7198C15.8563 23.8703 15.9671 23.7595 15.9671 23.623V16.2053C15.9671 16.0688 15.8563 15.958 15.7198 15.958Z" fill="#30689B"/>
<path d="M23.0883 15.5469C22.0315 15.1849 20.7097 15.5029 19.917 16.0731C19.8898 15.9667 19.7928 15.8876 19.6776 15.8876H17.205C17.0685 15.8876 16.9578 15.9984 16.9578 16.1349V23.5526C16.9578 23.6891 17.0685 23.7999 17.205 23.7999H19.6776C19.8141 23.7999 19.9249 23.6891 19.9249 23.5526V18.2217C20.3244 17.8775 20.8392 17.7678 21.2606 17.9468C21.669 18.1194 21.9029 18.5407 21.9029 19.102V23.5526C21.9029 23.6891 22.0137 23.7999 22.1502 23.7999H24.6228C24.7593 23.7999 24.87 23.6891 24.87 23.5526V18.604C24.8418 16.572 23.8859 15.8199 23.0883 15.5469Z" fill="#30689B"/>
</svg>
