<svg width="55" height="58" viewBox="0 0 55 58" fill="none" xmlns="http://www.w3.org/2000/svg">
<circle cx="27.7115" cy="29.6828" r="8.65233" stroke="#30689B" stroke-width="3"/>
<line x1="8.17177" y1="9.40223" x2="22.1718" y2="23.4022" stroke="#30689B" stroke-width="3"/>
<line x1="23.6584" y1="37.2957" x2="20.3681" y2="44.6147" stroke="#30689B" stroke-width="3"/>
<line x1="34.0179" y1="26.0105" x2="41.1111" y2="20.7919" stroke="#30689B" stroke-width="3"/>
<path d="M18 9C18 13.9706 13.9706 18 9 18C4.02944 18 0 13.9706 0 9C0 4.02944 4.02944 0 9 0C13.9706 0 18 4.02944 18 9Z" fill="#30689B"/>
<path d="M53.0735 16.7867C53.0735 20.2588 50.2588 23.0735 46.7867 23.0735C43.3147 23.0735 40.5 20.2588 40.5 16.7867C40.5 13.3147 43.3147 10.5 46.7867 10.5C50.2588 10.5 53.0735 13.3147 53.0735 16.7867Z" stroke="#30689B" stroke-width="3"/>
<circle cx="17.7867" cy="49.7867" r="6.28674" stroke="#30689B" stroke-width="3"/>
</svg>
