<svg width="51" height="50" viewBox="0 0 51 50" fill="none" xmlns="http://www.w3.org/2000/svg">
<rect x="42.1248" y="43.281" width="7.82924" height="3.50271" fill="white"/>
<path d="M45.584 5.31833L42.3923 12.3623C42.216 12.7513 42.1248 13.1735 42.1248 13.6005V45.6593C42.1248 46.7638 43.0203 47.6593 44.1248 47.6593H47.9541C49.0587 47.6593 49.9541 46.7638 49.9541 45.6593V13.6005C49.9541 13.1735 49.8629 12.7513 49.6867 12.3623L46.4949 5.31833C46.3175 4.92681 45.7614 4.92681 45.584 5.31833Z" stroke="#30689B" stroke-width="2"/>
<path d="M42.1249 13.5076H46.5288H49.9541" stroke="#30689B" stroke-width="2"/>
<path d="M42.1248 43.281H49.9541" stroke="#30689B" stroke-width="2"/>
<path d="M23.9752 10.3952L23.5967 4.10158C23.5612 3.51144 24.0426 3.0195 24.6334 3.04228L25.8053 3.08746C26.0532 3.09702 26.2888 3.19842 26.4661 3.37195L35.1434 11.8621C35.6631 12.3706 35.4836 13.2462 34.8057 13.5092L32.7588 14.3033C32.6225 14.3562 32.4762 14.3785 32.3303 14.3687L26.8836 14.0042C26.5907 13.9846 26.3212 13.8373 26.1466 13.6014L24.1696 10.9301C24.0544 10.7744 23.9868 10.5886 23.9752 10.3952Z" fill="white"/>
<path d="M2 9.12378V40.876C2 44.742 5.13401 47.876 9 47.876H29.5041C33.3701 47.876 36.5041 44.742 36.5041 40.876V15.1927C36.5041 13.2053 35.6592 11.3115 34.1803 9.98378L27.4199 3.91483C26.1353 2.76164 24.47 2.12378 22.7437 2.12378H9C5.13401 2.12378 2 5.25779 2 9.12378Z" stroke="#30689B" stroke-width="2.5"/>
<path d="M6.89328 27.0809C6.89328 26.3554 7.68197 25.7673 8.65486 25.7673H28.6194C29.5923 25.7673 30.381 26.3554 30.381 27.0809C30.381 27.8063 29.5923 28.3944 28.6194 28.3944H8.65486C7.68197 28.3944 6.89328 27.8063 6.89328 27.0809Z" fill="#30689B"/>
<path d="M6.89328 20.9507C6.89328 20.2253 7.68196 19.6372 8.65486 19.6372H28.6194C29.5923 19.6372 30.381 20.2253 30.381 20.9507C30.381 21.6762 29.5923 22.2642 28.6194 22.2642H8.65486C7.68196 22.2642 6.89328 21.6762 6.89328 20.9507Z" fill="#30689B"/>
<path d="M6.89328 33.2107C6.89328 32.4853 7.68197 31.8972 8.65486 31.8972H28.6194C29.5923 31.8972 30.381 32.4853 30.381 33.2107C30.381 33.9362 29.5923 34.5242 28.6194 34.5242H8.65486C7.68197 34.5242 6.89328 33.9362 6.89328 33.2107Z" fill="#30689B"/>
<path d="M6.89328 39.3396C6.89328 38.6142 7.69136 38.0261 8.67583 38.0261H21.7479C22.7323 38.0261 23.5304 38.6142 23.5304 39.3396C23.5304 40.0651 22.7323 40.6532 21.7479 40.6532H8.67583C7.69136 40.6532 6.89328 40.0651 6.89328 39.3396Z" fill="#30689B"/>
<path d="M23.4091 2.30933V10.0264C23.4091 12.2355 25.2 14.0264 27.4091 14.0264H35.6727" stroke="#30689B" stroke-width="2.5" stroke-linecap="round"/>
</svg>
