<svg width="98" height="116" viewBox="0 0 98 116" fill="none" xmlns="http://www.w3.org/2000/svg">
<path d="M58.715 38.6155L42.1496 44.0246L27.738 50.3852L23.7062 51.4496C22.6793 52.4264 21.6027 53.4156 20.4382 54.4173C19.1611 55.519 17.9716 56.5209 17.0574 57.2469C16.0433 58.0484 14.5407 59.5508 13.777 60.5023C12.6375 61.9296 11.736 63.4447 11.3479 64.6093C10.6591 66.7129 10.9974 68.8414 12.3246 70.8073C14.0274 73.3114 17.4207 75.8656 21.3772 77.606C23.3932 78.4952 26.7864 79.6345 29.3406 80.273C33.5851 81.3499 41.799 82.5144 46.319 82.6898C47.2329 82.7273 48.4601 82.7273 48.51 82.6898C48.6103 82.627 49.3115 81.2874 50.1255 79.6222C52.9052 73.95 54.9085 68.6285 55.9977 64.0835C56.6488 61.329 57.1621 57.6602 57.5 53.3156C57.5879 52.101 57.6253 48.0317 57.5502 46.6542C57.4374 44.4005 57.237 42.5725 56.9243 40.782C56.8742 40.519 56.8615 40.281 56.8866 40.2686C56.9366 40.231 57.0868 40.181 59.1278 39.5923L58.715 38.6155ZM54.9337 40.8318C55.0839 40.8318 55.4844 44.6757 55.5846 47.1049C55.6097 47.6182 55.597 47.9563 55.5721 47.9563C55.472 47.9563 53.456 46.7669 52.0163 45.8655C50.7641 45.0766 48.3852 43.4988 48.0096 43.1984C47.8842 43.1108 47.8966 43.0983 48.9235 42.7476C50.6638 42.159 54.7959 40.8318 54.9337 40.8318ZM46.4944 43.6116C46.6072 43.6116 46.895 43.7742 47.5837 44.2C50.163 45.8152 53.669 47.7685 55.1715 48.4197C55.6347 48.62 55.6846 48.5448 54.6205 49.2711C52.3417 50.8237 49.4993 52.3512 46.0184 53.8913C45.405 54.1668 44.8917 54.3796 44.8792 54.3796C44.8543 54.3796 44.9291 54.0667 45.0292 53.691C45.8682 50.573 46.344 47.4178 46.3692 44.8886C46.3817 43.6364 46.3817 43.6364 46.4944 43.599C46.4693 43.6116 46.4817 43.6116 46.4944 43.6116ZM44.7541 44.2751C44.829 44.3501 44.779 47.1549 44.6788 47.9187C44.4534 49.7468 44.1028 51.4496 43.5271 53.3655C43.3893 53.8284 43.2639 54.2168 43.2391 54.2418C43.1888 54.3043 41.4734 52.6265 40.91 51.9755C39.9333 50.8485 39.1697 49.7216 38.6062 48.6198C38.3182 48.0564 37.8675 46.9546 37.905 46.917C38.1053 46.7793 44.704 44.2251 44.7541 44.2751ZM36.5652 47.493C36.5776 47.493 36.5901 47.493 36.6028 47.5054C36.6278 47.5305 36.7156 47.7309 36.7907 47.9562C37.1912 49.0456 38.0926 50.6482 38.8691 51.675C39.7206 52.8019 40.835 54.0038 41.7613 54.7927C42.062 55.0431 42.3373 55.2809 42.3748 55.3186C42.4501 55.3937 42.4751 55.3811 40.434 56.1575C38.0678 57.059 35.4883 57.9605 32.5333 58.912C31.8274 59.1396 31.1222 59.3692 30.4176 59.6007C30.3047 59.6384 30.3423 59.5757 30.6679 59.0624C32.1328 56.771 34.3614 52.276 35.6136 49.0956C35.8265 48.5447 36.0393 47.9938 36.077 47.8686C36.1271 47.6932 36.1896 47.6307 36.3523 47.543C36.4399 47.5181 36.5277 47.493 36.5652 47.493ZM34.0612 48.5322C34.0987 48.5574 33.4601 49.897 32.834 51.124C31.6194 53.4905 30.2922 55.8196 28.5143 58.6492C28.2138 59.1375 27.9259 59.5884 27.8883 59.6384C27.8257 59.7261 27.8006 59.701 27.6003 59.3129C27.1745 58.474 26.8238 57.3971 26.6361 56.4079C26.4482 55.4312 26.4858 53.7284 26.6988 52.6767C26.8614 51.9005 26.849 51.913 27.2246 51.7251C28.8273 50.9113 34.0111 48.4821 34.0612 48.5322ZM55.6598 49.4088V49.9346C55.6598 52.7268 55.3594 56.5582 54.921 59.3505C54.8458 59.8388 54.783 60.2393 54.7707 60.252C54.7707 60.252 54.4077 60.152 53.9819 60.0266C52.1039 59.438 50.0629 58.5741 48.2222 57.5601C47.0075 56.8964 45.2422 55.8069 45.2924 55.7568C45.3047 55.7444 45.8307 55.4689 46.4441 55.1433C48.8985 53.8663 51.2523 52.4889 53.2932 51.1242C54.0571 50.6108 55.2088 49.7845 55.4595 49.559L55.6598 49.4088ZM24.6076 53.1148C24.6577 53.1148 24.6452 53.215 24.57 53.6657C24.5199 53.9914 24.4574 54.5924 24.4325 55.0054C24.3321 56.8335 24.6328 58.1859 25.5343 60.0389C25.7847 60.5523 25.9852 60.978 25.9725 60.9904C25.8848 61.0657 17.596 63.4949 14.9915 64.2085C14.2152 64.4212 13.5392 64.6091 13.4889 64.6215C13.4014 64.6467 13.3888 64.6342 13.4263 64.4211C13.7143 62.5807 15.1167 60.1766 17.0699 58.1481C18.3722 56.7959 19.4115 56.0072 21.1894 54.9928C22.4666 54.2667 24.4323 53.1775 24.5826 53.1273C24.5827 53.1148 24.5952 53.1148 24.6076 53.1148ZM44.1405 56.6082C44.153 56.5957 44.4534 56.7586 44.8165 56.9713C47.4961 58.524 51.2273 59.964 54.4074 60.7026L54.6956 60.7653L54.2948 60.9904C52.6296 61.9171 47.1579 64.1958 41.5612 66.287C40.7472 66.5873 39.9459 66.888 39.7954 66.9505C39.6452 67.013 39.5074 67.0507 39.5074 67.0382C39.5074 67.0255 39.733 66.5873 40.0207 66.049C41.5859 63.1191 43.1637 59.5507 43.965 57.0715C44.0654 56.8336 44.1278 56.6208 44.1405 56.6082ZM42.1496 57.2593C42.1623 57.2721 42.0621 57.5348 41.9368 57.8353C40.8475 60.4772 39.4199 63.3572 37.5919 66.5876C37.1288 67.414 36.7405 68.0777 36.7278 68.0777C36.7155 68.0777 36.3398 67.8522 35.889 67.5768C33.2344 65.949 30.8806 63.9457 29.3406 62.0049L29.1152 61.7294L30.2545 61.4163C34.3364 60.3021 37.8045 59.1001 41.248 57.6226C41.7364 57.4222 42.1372 57.2593 42.1496 57.2593ZM54.5204 61.5791C54.5329 61.8671 53.8943 64.4465 53.3684 66.3119C52.9302 67.8771 52.5543 69.1042 51.8659 71.2702C51.5654 72.222 51.3026 73.0106 51.2899 73.0106C51.2774 73.0106 51.2023 72.9982 51.1272 72.9733C47.4085 72.2969 44.0779 71.3579 40.9476 70.1059C40.071 69.7552 38.819 69.1917 38.7439 69.1292C38.719 69.1039 39.4703 68.7535 40.4218 68.3403C46.1189 65.8486 52.0287 63.0188 54.0571 61.8045C54.2949 61.6542 54.4828 61.5791 54.5204 61.5791ZM25.96 62.5558C25.9851 62.5808 24.3949 64.8722 22.166 67.9899C21.3898 69.0792 20.4883 70.3563 20.1503 70.8321C19.8122 71.3079 19.2989 72.0592 19.0109 72.51L18.4848 73.3239L17.9213 72.8481C17.2576 72.297 16.1058 71.1201 15.5925 70.469C14.5156 69.1294 13.7895 67.7145 13.5015 66.425C13.3638 65.8239 13.3638 65.5232 13.4888 65.4858C13.6766 65.4358 17.0197 64.6469 20.1502 63.9205C21.8906 63.52 23.9063 63.0442 24.6326 62.8689C25.3589 62.6934 25.9475 62.5558 25.96 62.5558ZM27.5626 63.1694L27.9631 63.6201C29.7664 65.636 31.6069 67.1262 33.8357 68.4281C34.2364 68.6536 34.5369 68.8538 34.5117 68.8666C34.4243 68.9291 26.7737 71.6459 23.2303 72.873C21.2396 73.5742 19.5992 74.1376 19.5869 74.1376C19.5744 74.1376 19.4616 74.0626 19.3362 73.9749L19.111 73.8121L19.4741 73.2863C20.651 71.5834 22.1287 69.7178 25.3465 65.8363L27.5626 63.1694ZM37.5545 70.3187C37.5668 70.3063 38.1178 70.5065 38.7938 70.7572C40.4218 71.3706 41.7112 71.7587 43.4393 72.197C45.5679 72.7355 48.648 73.2613 50.4637 73.4115C50.7391 73.4365 50.8894 73.4616 50.8393 73.4992C50.7514 73.5493 48.9111 74.1629 47.5588 74.5886C45.405 75.2646 38.8316 77.2053 33.4726 78.7455C32.4834 79.0335 31.6319 79.2714 31.5819 79.2838C31.4568 79.309 31.0435 79.1961 31.0435 79.146C31.0435 79.1212 31.3439 78.733 31.7071 78.3073C33.51 76.1536 35.3007 73.7496 36.7907 71.4708C37.2038 70.8445 37.5545 70.3312 37.5545 70.3187ZM35.3506 70.3815C35.3631 70.394 34.4742 71.8213 32.9218 74.2753C32.258 75.3146 31.5192 76.4916 31.2562 76.9048C31.0058 77.3054 30.6302 77.9316 30.4175 78.2821L30.0543 78.9208L29.8665 78.8706C29.4156 78.7454 26.2479 77.6309 25.4089 77.2929C24.3696 76.8797 23.2929 76.379 22.4914 75.9532C21.4899 75.4148 20.2379 74.6134 20.3379 74.5885C20.3629 74.576 22.0784 74.1125 24.1442 73.5492C29.6285 72.059 32.671 71.1952 34.662 70.5692C35.0252 70.4565 35.3382 70.3688 35.3506 70.3815ZM50.9393 74.0374H50.9518C51.0019 74.1628 48.9737 79.7972 48.2346 81.5751C48.0721 81.9757 48.0096 82.0761 47.9218 82.0633C47.7089 82.051 44.7666 81.6378 42.9759 81.3748C39.8583 80.899 34.6244 79.9848 33.3098 79.6845L33.0094 79.6219L34.8747 79.1959C38.8816 78.2945 40.8098 77.8062 42.763 77.2052C45.2297 76.454 47.6715 75.5148 50.138 74.363C50.5261 74.1876 50.8517 74.0499 50.9393 74.0374Z" fill="url(#paint0_linear_75_173)"/>
<path d="M41.6364 0.00064131C41.3609 -0.0367159 36.9158 1.56595 34.0486 2.73026C30.1795 4.30809 27.1746 5.8107 25.3214 7.1126C24.6329 7.60113 23.7688 8.46496 23.6312 8.80297C23.5812 8.9282 23.556 9.07844 23.556 9.22868L25.2339 10.8189L29.228 12.096L38.7315 13.7989L49.5996 15.6646L49.7124 14.7255C49.6749 14.7255 49.6497 14.713 49.6125 14.713L48.1847 14.4876L47.8969 13.9743C46.4194 11.3698 44.7917 8.13937 43.8401 5.9607C43.1015 4.27033 42.4002 2.31725 42.012 0.914824C41.7991 0.0634032 41.7739 0.013113 41.6364 0.00064131ZM41.4358 0.639409H41.4486C41.4609 0.651765 41.5111 1.00259 41.5612 1.41554C41.7739 3.16873 42.1624 4.85881 42.7758 6.68694C43.239 8.06431 43.239 7.98925 42.7007 7.82637C41.4235 7.47589 35.7015 6.48671 31.557 5.91076C30.8934 5.82305 30.3299 5.73546 30.3299 5.72299C30.2798 5.67293 33.3223 4.08262 34.6621 3.45673C36.3775 2.66773 41.0853 0.701941 41.4358 0.639409ZM29.3656 6.24876L29.8541 6.41136C32.5084 7.31301 39.1819 8.5902 42.8633 8.89067C43.2764 8.92826 43.6271 8.96591 43.6394 8.96591C43.6519 8.97838 43.3015 9.1662 42.8507 9.37897C41.0729 10.268 39.1195 11.3573 37.7672 12.1963C37.3667 12.4466 37.0034 12.6471 36.9534 12.6471C36.9033 12.6471 36.6405 12.5969 36.365 12.5594L35.8642 12.4841L34.6122 11.257C32.4085 9.11603 30.6805 7.4633 30.0169 6.83712L29.3656 6.24876ZM28.8649 6.63683L30.6304 8.84061C31.5944 10.0552 32.571 11.2446 32.7841 11.5074C32.9967 11.7705 33.1721 11.9835 33.1597 11.9959C33.1096 12.0335 30.6055 11.5451 29.2781 11.2447C27.9133 10.9316 27.3499 10.7813 26.511 10.5185L25.8223 10.293V10.1176C25.8348 9.27868 26.8992 8.02667 28.7022 6.74965L28.8649 6.63683ZM43.865 9.64192C43.9152 9.64192 43.9776 9.75457 44.1278 10.0926C44.5536 11.0316 45.881 13.561 46.2063 14.0493C46.3067 14.2122 46.4818 14.2247 44.7165 13.9367C40.472 13.2478 39.107 13.0227 39.107 12.9977C39.107 12.9852 39.2323 12.8975 39.395 12.8098C40.7098 12.0837 42.0369 11.157 43.214 10.1679C43.502 9.92992 43.765 9.70456 43.8149 9.66692C43.8274 9.64192 43.8526 9.62945 43.865 9.64192Z" fill="url(#paint1_linear_75_173)"/>
<path d="M23.7186 8.62767C23.7186 8.62767 23.4433 9.06608 23.7062 9.71721C23.8691 10.1177 24.3448 10.606 24.8831 11.1069C24.8831 11.1069 30.4549 16.541 31.1311 17.3174C34.2112 20.8733 35.551 24.3792 35.6762 29.2124C35.7513 32.3176 35.1627 35.0471 33.6979 38.215C31.0935 43.8996 25.5967 50.1726 17.12 57.1343L18.3597 56.7211C19.1611 56.12 20.2504 55.4816 22.8046 54.0792C28.7019 50.8486 35.3381 47.8811 43.4768 44.826C55.1962 40.4185 74.4663 35.2598 85.4345 33.5822L86.5741 33.4068L86.3986 33.1313C85.3972 31.5786 84.7083 30.6146 83.8818 29.5879C81.4779 26.6079 78.5607 24.1914 74.9921 22.188C70.0838 19.446 63.7355 17.3049 55.6972 15.7147C54.1822 15.4141 50.8516 14.8382 48.1471 14.425C42.4124 13.5362 38.7061 12.9226 34.6244 12.2214C33.1596 11.9709 30.9682 11.5953 29.5158 11.2824C28.7645 11.1195 27.3247 10.7815 26.1978 10.3933C25.2964 10.0426 23.994 9.69198 23.7186 8.62767ZM26.9492 11.7581C26.9615 11.7457 27.1618 11.8206 27.425 11.9083C27.9007 12.0709 28.5142 12.2588 29.2406 12.4592C29.7902 12.6104 30.3411 12.7565 30.8933 12.8974C31.6446 13.0851 32.2705 13.2605 32.283 13.2605C32.3708 13.3482 33.6355 17.3922 34.0612 18.9448C34.2237 19.5335 34.3492 20.0342 34.3367 20.0342C34.3238 20.0469 34.1863 19.8339 34.0236 19.546C32.5585 16.9666 30.2422 14.3497 27.5626 12.2461C27.2122 11.9959 26.9492 11.7705 26.9492 11.7581ZM33.1095 13.4609C33.1721 13.4609 33.4476 13.4985 33.7855 13.5735C35.9141 14.0493 39.7331 14.7756 42.1746 15.1888C42.5878 15.2513 42.9135 15.3266 42.9135 15.3515C42.9135 15.3767 42.7631 15.4642 42.5752 15.5644C42.1622 15.7772 40.4967 16.7663 39.946 17.142C38.556 18.0685 37.3041 19.0702 36.4025 19.9717C36.0394 20.3349 35.7262 20.6353 35.7262 20.6353C35.7262 20.6353 35.6513 20.4226 35.5885 20.1594C35.138 18.419 34.1987 15.8396 33.3473 14.0242C33.2096 13.7363 33.0968 13.4733 33.0968 13.4484C33.0968 13.4734 33.0968 13.4609 33.1095 13.4609ZM43.9526 15.5269C44.0277 15.5518 44.153 15.9776 44.4033 16.9166C44.8667 18.7322 45.0796 20.7606 45.0044 22.6513C44.9793 23.1772 44.9543 23.6654 44.9291 23.7282L44.8917 23.8532L44.2406 23.6405C42.9008 23.2148 40.7223 22.5761 38.8567 22.0503C37.7922 21.7623 36.9285 21.4993 36.9285 21.4743C36.9285 21.3991 38.4812 19.8466 39.1447 19.2581C40.4091 18.1436 43.8398 15.4892 43.9526 15.5269ZM44.8166 15.6519C44.8542 15.6146 50.0003 16.5033 52.3417 16.9542C54.0823 17.2922 56.6114 17.8181 56.7616 17.8808C56.8367 17.9058 56.5737 18.056 55.7348 18.4316C52.4293 19.9217 49.9751 21.2613 47.5338 22.8892C46.8952 23.3149 46.3567 23.6654 46.3442 23.6654C46.3317 23.6654 46.3192 23.3024 46.3192 22.8641C46.3192 20.4852 45.8434 18.0811 44.9667 16.0527C44.8791 15.8524 44.804 15.6646 44.8166 15.6519ZM58.1263 18.2815C58.164 18.319 58.0011 19.3333 57.8509 19.9342C57.4002 21.7999 56.1857 24.5672 54.6958 27.1714C54.4327 27.6347 54.1948 28.0103 54.1696 28.0228C54.1448 28.0353 53.8067 27.8474 53.4185 27.622C51.9661 26.7706 50.3134 25.9693 48.5102 25.218C48.0096 25.0052 47.5712 24.8298 47.5587 24.805C47.4709 24.7297 51.5027 22.0628 53.6314 20.7856C55.3217 19.759 58.0762 18.2313 58.1263 18.2815ZM59.0779 18.4317C59.1906 18.4317 61.4695 19.0578 62.6588 19.4084C65.6014 20.2849 68.9819 21.5244 71.1857 22.5261L72.0995 22.9394L71.4612 23.0895C66.0773 24.329 61.4695 25.7566 57.0245 27.5596C56.6613 27.7098 56.3357 27.835 56.311 27.835C56.2858 27.835 56.411 27.5471 56.5738 27.1964C57.9136 24.3542 58.7775 21.3867 58.9902 18.8573C59.0029 18.6194 59.0402 18.4317 59.0779 18.4317ZM36.39 23.6405C36.4275 23.6028 38.168 24.0161 39.107 24.2788C40.5344 24.6797 43.5644 25.6937 43.5644 25.769C43.5644 25.7814 43.2264 26.0694 42.8259 26.4202C41.1856 27.7849 39.6079 29.2247 37.7171 31.0528C37.1536 31.5914 36.6779 32.0296 36.653 32.0296C36.6278 32.0296 36.6155 31.9543 36.6278 31.8541C36.9158 29.7505 36.8533 27.0461 36.4526 24.304C36.4149 23.9533 36.3775 23.6529 36.39 23.6405ZM72.9638 23.6781C72.9886 23.703 72.1624 25.0052 71.6365 25.7439C70.8854 26.8206 69.7832 28.2483 67.2916 31.3785C65.9771 33.0311 64.4994 34.8969 64.0113 35.5229C63.5102 36.1489 63.0972 36.6747 63.0845 36.6747C63.072 36.6747 62.9095 36.4494 62.7341 36.174C61.3317 34.0704 59.6538 32.2298 57.6629 30.5771C57.2873 30.264 56.8743 29.9259 56.7366 29.8257C56.5988 29.7256 56.486 29.6254 56.486 29.6129C56.486 29.5755 58.6144 28.6612 60.2299 28.0103C63.0597 26.8583 66.9157 25.481 69.8083 24.592C71.3234 24.1162 72.9387 23.6529 72.9638 23.6781ZM73.9279 23.9284C73.9778 23.9159 74.2784 24.0662 74.6416 24.2788C77.6842 26.0193 80.6641 28.2606 83.0182 30.5645C83.6817 31.2157 85.322 32.9186 85.2968 32.931C85.2968 32.931 84.7209 32.9811 84.0449 33.0311C78.7735 33.4319 72.0248 34.5461 65.5388 36.1112C65.1007 36.2113 64.7126 36.299 64.6874 36.299C64.6626 36.299 65.1508 35.8107 65.7644 35.2223C69.5707 31.5537 71.3112 29.2373 73.3645 25.1053C73.6524 24.4919 73.9029 23.966 73.9279 23.9284C73.9154 23.9284 73.9154 23.9284 73.9279 23.9284ZM46.0436 26.7833C46.219 26.8207 47.8467 27.5847 49.0737 28.1981C50.2006 28.7614 51.891 29.6631 51.9786 29.7381C51.9911 29.7505 51.39 30.0636 50.6516 30.4268C48.2974 31.6037 46.2816 32.718 44.178 33.9952C43.577 34.3584 43.0762 34.659 43.0637 34.659C43.0136 34.659 43.0261 34.6087 43.3642 33.9952C44.4911 31.9419 45.3925 29.4878 45.906 27.0962C45.9559 26.9084 46.0061 26.7833 46.0436 26.7833ZM44.4158 27.0837C44.4534 27.1213 44.0277 28.6613 43.7649 29.5002C43.2514 31.0904 42.3875 33.0812 41.5487 34.5838C41.3481 34.9342 41.0477 35.4476 40.8849 35.7355L40.572 36.2364L39.8708 35.5604C39.057 34.7715 38.3933 34.2832 37.542 33.8449C37.2037 33.6698 36.9409 33.5193 36.9409 33.4945C36.9409 33.3943 39.082 31.4536 40.7222 30.0512C41.8991 29.0369 44.3783 27.0462 44.4158 27.0837ZM54.3702 31.1781L54.9838 31.5787C56.3859 32.4929 58.0386 33.7073 59.3035 34.7715C60.0169 35.3599 61.3942 36.5997 61.6699 36.9001L61.8199 37.0631L60.806 37.351C55.0713 38.941 50.6389 40.3559 45.4676 42.2592C44.8917 42.472 44.4033 42.6473 44.3657 42.6473C44.2908 42.6473 44.228 42.7098 45.5178 41.5203C48.8234 38.4779 51.7532 35.1221 53.9319 31.8541L54.3702 31.1781ZM51.7533 31.8292C51.7782 31.8541 50.0629 34.2706 49.0361 35.6355C47.8091 37.2633 45.6303 39.9928 44.1278 41.7706C43.502 42.5095 42.9637 43.123 42.9385 43.1356C42.9008 43.148 42.8884 42.9603 42.8884 42.6723C42.8884 41.1571 42.5003 39.5419 41.8241 38.1647C41.5361 37.5887 41.4859 37.451 41.5488 37.3884C41.7866 37.1755 45.4301 35.097 47.7339 33.8575C49.2865 33.0312 51.7154 31.8041 51.7533 31.8292ZM35.9266 35.7107C35.9642 35.7107 36.2522 35.8608 36.5778 36.0363C37.3791 36.4744 38.0928 36.9627 38.7314 37.4887C38.7563 37.5137 38.4309 37.7767 38.0052 38.0896C36.8156 38.941 35.0127 40.3059 33.9611 41.1448C32.859 42.0213 32.8217 42.0463 32.9467 41.8585C33.7732 40.5939 34.1862 39.8802 34.6246 38.9662C35.0127 38.1524 35.4008 37.1883 35.6762 36.3493C35.7763 35.9862 35.9016 35.7107 35.9266 35.7107ZM40.1463 39.0162C40.2087 39.0038 40.2841 39.1163 40.622 39.6173C41.3357 40.6814 41.8866 42.109 42.0246 43.2609L42.0494 43.5114L40.3342 44.175C37.2664 45.3644 34.4368 46.5415 32.5208 47.4178C31.9826 47.6683 31.0435 48.119 30.4301 48.4197C29.8165 48.7325 29.3156 48.9704 29.3156 48.958C29.3156 48.9455 29.7037 48.6575 30.1795 48.3068C33.9235 45.5899 37.1663 42.6097 39.5953 39.6298C39.8583 39.3167 40.0963 39.0287 40.1212 39.0162L40.1463 39.0162ZM38.2056 39.4921C38.2557 39.5421 36.8284 41.1572 35.8517 42.1464C33.4351 44.6132 31.0436 46.5415 28.076 48.4197C27.7004 48.6575 27.3624 48.8703 27.3248 48.8954C27.2371 48.9455 27.3497 48.8202 28.652 47.4053C29.4785 46.5163 30.1044 45.7651 30.8181 44.8386C31.2939 44.2252 31.3816 44.1375 32.0704 43.649C33.911 42.3217 38.1555 39.4419 38.2056 39.4921Z" fill="url(#paint2_radial_75_173)"/>
<path d="M17.6182 98.5523C17.4673 98.5523 17.3163 98.5652 17.1667 98.5652C14.1187 98.7101 12.063 99.9067 10.8611 102.244C9.83306 104.357 9.9453 107.12 10.8726 109.246C11.9509 111.324 13.6933 112.42 16.6017 112.835C17.2171 112.925 17.6297 113.226 18.8215 114.467L20.288 116H22.9477L21.1792 114.41C20.2015 113.537 19.4108 112.778 19.4108 112.711C19.4108 112.645 19.7848 112.499 20.2375 112.375C21.7298 111.973 22.9691 110.944 23.836 109.368C24.5376 108.102 24.6383 107.711 24.7389 106.136C25.002 101.448 22.2315 98.5175 17.618 98.551L17.6182 98.5523ZM19.95 110.811C18.6561 111.37 16.7772 111.482 15.5508 111.08C14.2828 110.665 13.055 109.49 12.5028 108.16C11.889 106.705 11.9766 104.022 12.6783 102.814C13.8068 100.89 15.2992 100.005 17.4801 100.005C20.7149 100.005 22.5551 101.773 22.7952 105.095C22.985 107.868 21.9441 109.948 19.9514 110.81L19.95 110.811ZM65.8953 102.556C64.7797 102.556 63.9257 102.959 63.3505 103.753L62.8991 104.381V102.747H60.9684V112.546H62.8979V109.414C62.8979 106.55 62.9379 106.215 63.3865 105.432C64.0048 104.357 65.0685 103.821 66.0967 104.078L66.7867 104.257V102.559H65.8953V102.556ZM54.5521 102.467C54.1739 102.467 53.7727 102.512 53.3733 102.59C50.7896 103.193 49.3333 105.398 49.4224 107.669C49.4224 109.569 49.8363 110.52 50.8645 111.516C52.9707 113.058 54.8756 113.181 57.4461 112.354C57.8846 112.187 58.3619 111.995 58.3619 111.995V110.453L57.4461 110.876C55.3657 111.684 53.7987 111.684 52.5435 110.733C51.7429 110.005 51.3905 109.133 51.2282 108.138H59.0131V106.817C59.0131 104.124 57.1959 102.423 54.5505 102.467H54.5521ZM51.4035 106.763C51.4035 106.763 51.6911 105.083 52.7578 104.424C53.2712 104.101 53.8605 103.944 54.437 103.944C55.015 103.944 55.5915 104.111 56.0674 104.435C57.0451 105.106 57.2089 106.75 57.2089 106.75H51.4036L51.4035 106.763ZM4.85583 104.996C2.76264 103.865 1.83389 103.049 1.94745 102.087C2.27231 99.4257 5.95861 99.7938 8.00002 100.801L8.01454 99.0103C8.01454 99.0103 6.8859 98.5742 5.26846 98.5511C2.78704 98.5177 1.18259 99.2436 0.430783 100.721C-0.673456 102.901 0.304289 104.546 3.83817 106.38C5.8221 107.41 6.69901 108.304 6.69901 109.278C6.69901 111.292 3.97753 111.995 1.16979 110.731C0.591951 110.475 0.103079 110.261 0.0772228 110.261C-0.023482 110.831 0.0284284 112.197 0.0284284 112.197C0.0284284 112.197 0.891082 112.521 2.18486 112.744C5.39363 113.314 8.31367 111.971 8.58966 109.791C8.82979 107.744 8.00008 106.671 4.85596 104.994L4.85583 104.996ZM82.9835 102.444C82.6068 102.444 82.2071 102.49 81.7902 102.568C79.2096 103.171 77.756 105.377 77.8552 107.647C77.8552 109.545 78.2679 110.486 79.2958 111.482C81.4021 113.025 83.307 113.149 85.8905 112.321C86.3275 112.154 86.8034 111.964 86.8034 111.964V110.42L85.8891 110.846C83.8045 111.651 82.2374 111.651 80.9867 110.699C80.1815 109.974 79.8322 109.112 79.6697 108.105H87.4418V106.784C87.4418 104.103 85.6244 102.401 82.9791 102.446L82.9835 102.444ZM79.835 106.74C79.835 106.74 80.1254 105.063 81.1907 104.39C81.7025 104.066 82.2919 103.909 82.8684 103.909C83.4435 103.909 84.0229 104.076 84.4989 104.402C85.4765 105.073 85.6405 106.729 85.6405 106.729H79.8365L79.835 106.74ZM44.4451 105.018C42.352 103.889 41.426 103.071 41.5382 102.109C41.863 99.4461 45.5494 99.8156 47.5908 100.822L47.6052 99.032C47.6052 99.032 46.4766 98.5959 44.8592 98.5753C42.3777 98.5421 40.7733 99.268 40.0201 100.745C38.9174 102.926 39.9079 104.57 43.4302 106.404C45.4114 107.433 46.2883 108.315 46.2883 109.29C46.2883 111.303 43.5682 112.018 40.7604 110.743C40.1854 110.486 39.6966 110.275 39.6679 110.275C39.5672 110.845 39.6191 112.211 39.6191 112.211C39.6191 112.211 40.4715 112.523 41.7611 112.758C44.9729 113.33 47.8942 111.988 48.1689 109.808C48.4076 107.771 47.5795 106.698 44.4452 105.02L44.4451 105.018ZM94.3282 102.533C93.2126 102.533 92.3487 102.937 91.7836 103.731L91.332 104.357V102.726H89.4012V112.522H91.3306V109.39C91.3306 106.527 91.3693 106.191 91.8196 105.409C92.4377 104.335 93.5014 103.798 94.5294 104.056L95.2195 104.235V102.533L94.3282 102.533ZM29.0908 98.7202H27.1443V112.544H35.3305V110.911H29.0909L29.0908 98.7202ZM74.1073 106.907L72.5029 110.631L70.9601 106.886L69.3931 102.736H67.4005C68.6917 106.001 70.096 109.323 71.5123 112.544C72.1262 112.556 72.7415 112.544 73.3552 112.544L77.7288 102.737H75.8239C75.8239 102.737 74.9828 104.705 74.1059 106.908L74.1073 106.907ZM33.5763 94.9534C33.8898 94.9534 34.1514 94.8638 34.367 94.6714C34.5797 94.4815 34.6919 94.2583 34.6919 93.9787C34.6919 93.6991 34.5797 93.4657 34.367 93.2861C34.1514 93.1066 33.9026 93.0167 33.5906 93.0167C33.2745 93.0167 33.0127 93.1066 32.7999 93.2964C32.5843 93.4863 32.4865 93.7197 32.4865 93.989C32.4865 94.2712 32.5872 94.5045 32.7999 94.6817C33.0013 94.8611 33.2629 94.9509 33.5763 94.9509V94.9534ZM32.8863 93.3631C33.0731 93.1965 33.3003 93.1194 33.5907 93.1194C33.8639 93.1194 34.0911 93.1965 34.2809 93.3631C34.4678 93.5299 34.5685 93.7325 34.5685 93.9787C34.5685 94.225 34.4678 94.4379 34.2809 94.6046C34.0912 94.7712 33.8639 94.8508 33.5907 94.8508C33.3133 94.8508 33.0875 94.7739 32.9007 94.6046C32.7138 94.4379 32.6132 94.225 32.6132 93.9787C32.6132 93.7325 32.6994 93.5299 32.8863 93.3631ZM33.3506 94.0686H33.4771C33.5663 94.0686 33.654 94.1455 33.7287 94.2917L33.8798 94.5943H34.1169L33.9301 94.2582C33.8539 94.1236 33.7792 94.0454 33.6914 94.0235C33.8021 94.0004 33.8898 93.9671 33.9531 93.9003C34.0162 93.8427 34.0393 93.7644 34.0393 93.6759C34.0393 93.5733 34.0033 93.4964 33.9272 93.44C33.8409 93.3758 33.7029 93.3412 33.5245 93.3412H33.125V94.5943H33.3262V94.0685L33.3506 94.0686ZM33.5261 93.4863C33.6526 93.4863 33.7417 93.5093 33.7906 93.5426C33.8381 93.576 33.851 93.6197 33.851 93.6991C33.851 93.844 33.7502 93.9121 33.5635 93.9121H33.3479V93.4863H33.5261ZM1.19545 93.9569C1.19545 93.5209 1.18113 93.1965 1.16959 93.0053H1.18113C1.23138 93.2309 1.29324 93.399 1.34356 93.5106L3.21246 97.2351H3.52591L5.39482 93.4773C5.44527 93.3748 5.49559 93.2208 5.55738 93.0066H5.5717C5.53438 93.3786 5.52145 93.7017 5.52145 93.9595V97.2467H6.16108V92.3602H5.35889L3.64094 95.7589C3.57763 95.8935 3.48992 96.095 3.37781 96.3617H3.35182C3.31449 96.2296 3.22678 96.0282 3.10175 95.782L1.42245 92.3485H0.570007V97.235H1.18531V93.9594L1.19545 93.9569ZM7.56292 93.966H8.11511V97.0094H7.56292V93.966ZM7.83898 92.8501C7.95407 92.8501 8.0518 92.8154 8.12651 92.7476C8.20275 92.6808 8.25314 92.5936 8.25314 92.4911C8.25314 92.391 8.21568 92.3012 8.12804 92.2346C8.0504 92.1665 7.95116 92.1318 7.83759 92.1318C7.72555 92.1318 7.62491 92.1665 7.55 92.2346C7.47402 92.3012 7.42357 92.391 7.42357 92.4911C7.42357 92.6027 7.46242 92.6808 7.55 92.7476C7.63645 92.8154 7.72548 92.8501 7.83759 92.8501H7.83898ZM12.0515 97.0762V96.54C11.7495 96.7414 11.4246 96.8415 11.0882 96.8415C10.6858 96.8415 10.3593 96.7184 10.1206 96.4825C9.88344 96.2491 9.75695 95.9244 9.75695 95.5205C9.75695 95.0973 9.88344 94.7611 10.1451 94.5046C10.3966 94.2584 10.7231 94.1352 11.1228 94.1352C11.4491 94.1352 11.7624 94.2251 12.0515 94.4048V93.834C11.7885 93.7109 11.488 93.6544 11.1487 93.6544C10.5217 93.6544 10.0331 93.834 9.66791 94.1804C9.30553 94.5267 9.11864 94.9974 9.11864 95.5656C9.11864 96.0708 9.28107 96.4954 9.61905 96.8199C9.97122 97.1533 10.4214 97.3226 10.9734 97.3226C11.4002 97.3121 11.7495 97.2326 12.0515 97.0762ZM13.6314 95.4537C13.6314 95.0522 13.732 94.7279 13.9189 94.5045C14.0944 94.3033 14.3071 94.202 14.5587 94.202C14.7715 94.202 14.9224 94.2366 15.033 94.3148V93.7325C14.9469 93.6992 14.8218 93.6876 14.6593 93.6876C14.4336 93.6876 14.2324 93.7554 14.0556 93.88C13.8687 94.012 13.7192 94.2135 13.6315 94.47H13.6171V93.7555H12.9918V97.2441H13.6185V95.4537H13.6314ZM17.2299 97.3133C17.8194 97.3133 18.2939 97.144 18.646 96.8081C18.9967 96.4745 19.1722 96.0257 19.1722 95.4664C19.1722 94.8958 19.0113 94.4597 18.6834 94.1351C18.3586 93.8108 17.907 93.6541 17.3175 93.6541C16.728 93.6541 16.2536 93.8107 15.9014 94.1133C15.5248 94.4469 15.3263 94.9176 15.3263 95.5217C15.3263 96.0475 15.4874 96.4836 15.8267 96.8081C16.1775 97.144 16.6419 97.312 17.2299 97.312V97.3133ZM16.3386 94.4712C16.5772 94.2468 16.8907 94.1351 17.2788 94.1351C17.6815 94.1351 17.9833 94.2468 18.2076 94.4712C18.4333 94.706 18.5455 95.0408 18.5455 95.4883C18.5455 95.914 18.4448 96.2488 18.232 96.4733C18.0193 96.708 17.7059 96.8323 17.2917 96.8323C16.8892 96.8323 16.5772 96.7079 16.3386 96.4733C16.1014 96.2373 15.9878 95.914 15.9878 95.4883C15.9634 95.0651 16.0885 94.7189 16.3386 94.4712ZM21.9168 97.0094C22.1554 96.8197 22.2821 96.5862 22.2821 96.2937C22.2821 96.0372 22.1813 95.8243 21.9945 95.6563C21.842 95.5217 21.6064 95.3998 21.2656 95.2766C20.9636 95.1639 20.7767 95.0637 20.676 94.9855C20.5755 94.8958 20.5136 94.7843 20.5136 94.6264C20.5136 94.4815 20.5769 94.3699 20.7006 94.2801C20.8271 94.1905 20.9882 94.1469 21.2038 94.1469C21.5417 94.1469 21.8306 94.2263 22.095 94.3944V93.8352C21.8421 93.7224 21.5675 93.6685 21.254 93.6685C20.8515 93.6685 20.5122 93.7674 20.2619 93.9583C19.9988 94.1482 19.8738 94.3945 19.8738 94.6842C19.8738 94.9407 19.96 95.1537 20.1238 95.3101C20.2619 95.4435 20.4978 95.5795 20.8255 95.7012C21.139 95.8244 21.3517 95.9359 21.4652 96.0256C21.5773 96.1155 21.6277 96.227 21.6277 96.3593C21.6277 96.6849 21.3776 96.853 20.8887 96.853C20.512 96.853 20.1743 96.7427 19.8722 96.5196V97.1222C20.1454 97.2686 20.4732 97.3352 20.8355 97.3352C21.2999 97.3134 21.6635 97.2121 21.9137 97.0107L21.9168 97.0094ZM24.9015 93.6542C24.3119 93.6542 23.8375 93.8108 23.4853 94.1134C23.1115 94.447 22.9102 94.9177 22.9102 95.5218C22.9102 96.0476 23.0728 96.4837 23.4106 96.8082C23.7628 97.1441 24.2257 97.3122 24.8152 97.3122C25.419 97.3122 25.8791 97.143 26.2313 96.8068C26.5835 96.4734 26.7589 96.0245 26.7589 95.4652C26.7589 94.8945 26.595 94.4585 26.27 94.134C25.9309 93.8095 25.4793 93.653 24.9042 93.653L24.9015 93.6542ZM26.1177 95.4884C26.1177 95.9141 26.017 96.2489 25.8043 96.4733C25.5915 96.7081 25.278 96.8324 24.8639 96.8324C24.4612 96.8324 24.1494 96.708 23.9106 96.4733C23.6735 96.2374 23.5599 95.9141 23.5599 95.4884C23.5599 95.0395 23.6851 94.6933 23.9367 94.4597C24.1738 94.2366 24.4874 94.1236 24.8769 94.1236C25.265 94.1236 25.5771 94.2364 25.8027 94.4597C26.004 94.7059 26.1162 95.0407 26.1162 95.4884H26.1177ZM27.8113 97.2339H28.4367V94.2135H29.3525V93.7441H28.4367V93.2054C28.4367 92.7156 28.6493 92.4693 29.0894 92.4693C29.2375 92.4693 29.3884 92.5026 29.5006 92.5591V92.0551C29.3884 92.0102 29.2375 92 29.049 92C28.7112 92 28.4352 92.0898 28.2094 92.2796C27.9463 92.5027 27.8069 92.7926 27.8069 93.1852V93.7572H27.1454V94.2266H27.8069V97.2355L27.8113 97.2339ZM30.3804 96.2822C30.3804 96.9646 30.7183 97.3121 31.4083 97.3121C31.6586 97.3121 31.8468 97.2763 31.9978 97.1967V96.7171C31.8828 96.7941 31.7462 96.83 31.5953 96.83C31.3826 96.83 31.2331 96.785 31.1453 96.6837C31.0561 96.5838 31.0059 96.4143 31.0059 96.1809V94.2122H31.9977V93.7428H31.0059V92.7143C30.7902 92.7809 30.5789 92.8374 30.379 92.8937V93.7427H29.7033V94.2122H30.379V96.281L30.3804 96.2822ZM97.6636 102.713C97.4509 102.533 97.1993 102.444 96.8873 102.444C96.5711 102.444 96.3093 102.533 96.0966 102.726C95.8838 102.914 95.783 103.149 95.783 103.418C95.783 103.698 95.8838 103.931 96.095 104.111C96.3078 104.29 96.5694 104.38 96.8858 104.38C97.1977 104.38 97.4608 104.29 97.6765 104.101C97.8879 103.908 98 103.686 98 103.408C97.9885 103.126 97.8749 102.892 97.6622 102.713L97.6636 102.713ZM97.563 104.034C97.3761 104.201 97.149 104.278 96.8729 104.278C96.5998 104.278 96.3727 104.201 96.1829 104.034C95.9961 103.865 95.8953 103.653 95.8953 103.405C95.8953 103.162 95.9815 102.959 96.1713 102.79C96.3582 102.623 96.584 102.546 96.8729 102.546C97.1461 102.546 97.3734 102.623 97.563 102.79C97.7499 102.959 97.8505 103.162 97.8505 103.405C97.8505 103.665 97.7643 103.865 97.563 104.034ZM96.9994 103.463C97.1115 103.44 97.2007 103.395 97.2625 103.34C97.3258 103.282 97.3489 103.204 97.3489 103.114C97.3489 103.014 97.3129 102.935 97.2368 102.88C97.1505 102.816 97.0111 102.781 96.8344 102.781H96.4347V104.033H96.636V103.507H96.761C96.8474 103.507 96.9336 103.584 97.0111 103.73L97.1606 104.031H97.3994L97.2125 103.695C97.1478 103.549 97.073 103.482 96.9969 103.46L96.9994 103.463ZM96.8614 103.35H96.6458V102.927H96.8226C96.9477 102.927 97.0354 102.948 97.0858 102.982C97.136 103.016 97.1476 103.059 97.1476 103.139C97.1476 103.284 97.0469 103.35 96.8601 103.35L96.8614 103.35ZM61.8842 93.5992H62.0597V92.3461H62.5239V92.1896H61.4199V92.3461H61.8844L61.8842 93.5992ZM62.9481 92.6578C62.9481 92.5358 62.9481 92.4358 62.938 92.3795C62.9496 92.4461 62.9754 92.4911 62.987 92.5244L63.5261 93.5992H63.6124L64.1529 92.5141C64.1674 92.4808 64.1789 92.4371 64.2032 92.3795C64.1917 92.4911 64.1917 92.5807 64.1917 92.6488V93.5979H64.3787V92.1896H64.1529L63.6642 93.1618C63.6526 93.1965 63.6137 93.2644 63.5893 93.3414H63.5749C63.5649 93.2964 63.5391 93.2516 63.5031 93.1748L63.0143 92.1897H62.7613V93.6005H62.938V92.6591L62.9481 92.6578Z" fill="#231F1F"/>
<defs>
<linearGradient id="paint0_linear_75_173" x1="25.3772" y1="94.4782" x2="38.9853" y2="88.2532" gradientUnits="userSpaceOnUse">
<stop stop-color="#909CA9"/>
<stop offset="1" stop-color="#EDEDEE"/>
</linearGradient>
<linearGradient id="paint1_linear_75_173" x1="0.164589" y1="57.821" x2="18.2226" y2="57.821" gradientUnits="userSpaceOnUse">
<stop stop-color="#939FAB"/>
<stop offset="1" stop-color="#DCDEE1"/>
</linearGradient>
<radialGradient id="paint2_radial_75_173" cx="0" cy="0" r="1" gradientUnits="userSpaceOnUse" gradientTransform="translate(43.4593 50.9018) rotate(-165.717) scale(8.94721 29.132)">
<stop stop-color="#EE352C"/>
<stop offset="1" stop-color="#A91D22"/>
</radialGradient>
</defs>
</svg>
