<svg width="150" height="90" viewBox="0 0 150 32" fill="none" xmlns="http://www.w3.org/2000/svg">
<path d="M15.7159 2.94635H13.0756V3.90647H15.7159V6.84682H16.748V3.90647H19.4543V2.94635H16.748V0H15.7159V2.94635Z" fill="#7099A6"/>
<path d="M7.08681 7.3569H3.09033V8.70106H7.08681V13.0516H8.56899V8.70106H12.6255V7.3569H8.56899V3.07239H7.08681V7.3569Z" fill="#EB912C"/>
<path d="M23.8349 7.3569H19.8384V8.76707H23.8349V13.0516H25.377V8.76707H29.3735V7.3569H25.377V3.07239H23.8349V7.3569Z" fill="#59879B"/>
<path fill-rule="evenodd" clip-rule="evenodd" d="M96.7496 6.39679H98.8078V24.639H96.7496V6.39679ZM79.7075 8.31702H81.8018V10.8493C81.8018 13.2256 81.8138 13.3696 81.9158 13.3396C81.9818 13.3156 82.2938 13.2316 82.6119 13.1416C82.9899 13.0396 83.446 12.9736 83.932 12.9436C84.4841 12.9196 84.8081 12.9376 85.2162 13.0156C85.5642 13.0816 85.9783 13.2256 86.3443 13.4056C86.6624 13.5616 87.0824 13.8257 87.2804 13.9997C87.4725 14.1677 87.7785 14.5218 87.9525 14.7858C88.1326 15.0498 88.3546 15.4699 88.4506 15.7279C88.5526 15.9799 88.6786 16.454 88.7386 16.784C88.8106 17.2161 88.8286 17.5881 88.8046 18.1762C88.7866 18.6143 88.7206 19.1603 88.6606 19.3883C88.6066 19.6164 88.4626 20.0064 88.3486 20.2525C88.2346 20.4985 88.0065 20.8765 87.8445 21.0866C87.6885 21.2966 87.3705 21.6086 87.1424 21.7826C86.9204 21.9567 86.5123 22.1967 86.2483 22.3167C85.9843 22.4427 85.5462 22.5987 85.2822 22.6707C84.8681 22.7848 84.6041 22.8028 83.416 22.8088C82.2938 22.8148 81.9278 22.7908 81.4837 22.6947C81.1837 22.6287 80.6857 22.5027 80.3856 22.4187C80.0856 22.3347 79.8215 22.2387 79.7975 22.2147C79.7735 22.1907 79.7435 19.0583 79.7315 15.2479L79.7075 8.31702ZM82.3178 15.1458L81.8378 15.3139V20.6365C82.8459 20.9005 83.0619 20.9185 83.734 20.9005C84.3941 20.8825 84.6101 20.8525 84.9282 20.7325C85.1382 20.6485 85.4322 20.4925 85.5702 20.3785C85.7143 20.2705 85.9183 20.0664 86.0263 19.9284C86.1343 19.7904 86.2903 19.5024 86.3683 19.2923C86.4523 19.0823 86.5483 18.6803 86.5844 18.3982C86.6384 18.0142 86.6384 17.7502 86.5784 17.3421C86.5303 16.9761 86.4283 16.646 86.2783 16.334C86.1583 16.076 85.9483 15.7579 85.8163 15.6259C85.6842 15.4939 85.4442 15.3079 85.2822 15.2178C85.1262 15.1218 84.8202 15.0018 84.6041 14.9478C84.3941 14.8878 84.0161 14.8458 83.77 14.8518C83.524 14.8578 83.2 14.8878 83.0619 14.9178C82.9179 14.9478 82.5879 15.0498 82.3178 15.1458ZM45.6054 8.9591H47.6637V14.7798H53.2024V16.7H47.6637V22.9708H45.6054V16.7H40.0668V14.7798H45.6054V8.9591Z" fill="#1F447E"/>
<path d="M15.3318 14.9118H10.8853V16.7H15.3318V21.5006H17.132V16.7H21.5785V14.9118H17.132V10.1112H15.3318V14.9118Z" fill="#E8762C"/>
<path d="M28.4074 15.2298H25.701V16.448H28.4074V19.4543H29.7575V16.448H32.4639V15.2298H29.7575V12.2235H28.4074V15.2298Z" fill="#5B6591"/>
<path d="M2.64032 15.2958H0V16.316H2.64032V19.1963H3.67244V16.316L6.37877 16.22V15.2958H3.67244V12.4155H2.64032V15.2958Z" fill="#7099A6"/>
<path fill-rule="evenodd" clip-rule="evenodd" d="M67.7003 12.8596H69.7585V16.652C69.7585 18.7403 69.7345 20.8585 69.6625 22.2747L69.1464 22.4307C68.8644 22.5147 68.2703 22.6467 67.8263 22.7247C67.1482 22.8388 66.8422 22.8508 65.8641 22.8268C64.9579 22.8028 64.5919 22.7667 64.1898 22.6647C63.9018 22.5867 63.4098 22.4007 63.0917 22.2447C62.7557 22.0767 62.3536 21.8126 62.1256 21.6146C61.9156 21.4226 61.6155 21.0805 61.4715 20.8585C61.3215 20.6305 61.1235 20.2704 61.0395 20.0604C60.9555 19.8504 60.8294 19.4303 60.7694 19.1363C60.6854 18.7043 60.6674 18.3862 60.6914 17.6301C60.7214 16.904 60.7634 16.55 60.8654 16.19C60.9435 15.9259 61.1235 15.4939 61.2615 15.2298C61.3995 14.9658 61.6755 14.5638 61.8796 14.3417C62.0896 14.1137 62.4316 13.8137 62.6417 13.6697C62.8517 13.5316 63.1997 13.3456 63.4158 13.2616C63.6258 13.1776 64.0098 13.0636 64.2679 13.0156C64.5259 12.9676 65.0059 12.9256 65.33 12.9256C65.66 12.9256 66.1281 12.9736 66.3801 13.0216C66.6261 13.0756 67.0162 13.2076 67.2502 13.3156C67.4782 13.4176 67.6763 13.5076 67.6823 13.5016C67.6883 13.5016 67.7003 13.3576 67.7003 13.1836V12.8596ZM64.1958 15.2178C64.0218 15.3139 63.7698 15.5119 63.6318 15.6619C63.4938 15.8119 63.3077 16.0759 63.2237 16.256C63.1337 16.43 63.0197 16.754 62.9657 16.9761C62.9117 17.1921 62.8697 17.5881 62.8697 17.8522C62.8697 18.1162 62.8997 18.5062 62.9357 18.7163C62.9777 18.9263 63.0857 19.2743 63.1877 19.4844C63.3077 19.7364 63.4998 19.9944 63.7458 20.2224C63.9858 20.4445 64.2679 20.6305 64.5139 20.7265C64.8139 20.8465 65.054 20.8825 65.672 20.9125C66.1101 20.9305 66.6621 20.9065 66.9562 20.8645C67.2382 20.8225 67.5022 20.7685 67.5443 20.7445C67.5923 20.7145 67.6283 19.8804 67.6583 18.0922L67.7003 15.4879C67.1722 15.1998 66.8782 15.0678 66.6982 15.0078C66.5241 14.9418 66.1161 14.8818 65.798 14.8698C65.402 14.8518 65.108 14.8758 64.8619 14.9478C64.6699 15.0018 64.3699 15.1218 64.1958 15.2178ZM131.404 12.8596H133.462V16.0759C133.462 17.8462 133.444 19.9644 133.366 22.2747L132.85 22.4307C132.568 22.5147 131.998 22.6467 131.578 22.7127C131.044 22.8087 130.534 22.8448 129.844 22.8448C129.298 22.8448 128.668 22.8147 128.44 22.7787C128.212 22.7367 127.761 22.6227 127.443 22.5207C127.101 22.4127 126.657 22.2027 126.381 22.0227C126.111 21.8486 125.739 21.5426 125.547 21.3326C125.361 21.1285 125.097 20.7685 124.971 20.5405C124.845 20.3125 124.671 19.8924 124.587 19.6164C124.461 19.2143 124.425 18.9023 124.395 18.1762C124.377 17.5941 124.395 17.0781 124.443 16.796C124.485 16.55 124.593 16.136 124.683 15.8719C124.767 15.6079 124.965 15.1878 125.121 14.9418C125.271 14.6958 125.595 14.3057 125.841 14.0777C126.117 13.8257 126.477 13.5676 126.771 13.4236C127.035 13.2976 127.419 13.1416 127.635 13.0816C127.845 13.0276 128.368 12.9616 128.794 12.9436C129.364 12.9196 129.694 12.9436 130.048 13.0156C130.318 13.0756 130.72 13.2076 130.954 13.3156C131.182 13.4176 131.38 13.5076 131.386 13.5016C131.398 13.5016 131.404 13.3576 131.404 13.1836V12.8596ZM127.899 15.2178C127.725 15.3139 127.473 15.5119 127.335 15.6619C127.197 15.8119 127.017 16.0759 126.927 16.256C126.837 16.43 126.723 16.754 126.669 16.9761C126.615 17.1921 126.573 17.6181 126.573 17.9182C126.573 18.2182 126.615 18.6443 126.669 18.8603C126.723 19.0823 126.825 19.3823 126.903 19.5324C126.981 19.6824 127.179 19.9464 127.341 20.1144C127.503 20.2884 127.767 20.4925 127.923 20.5705C128.086 20.6545 128.374 20.7685 128.572 20.8225C128.794 20.8885 129.16 20.9245 129.586 20.9245C129.946 20.9245 130.456 20.8945 130.708 20.8585C130.966 20.8225 131.212 20.7685 131.248 20.7445C131.302 20.7145 131.332 19.9404 131.35 18.0862L131.368 15.4639C130.72 15.1338 130.36 14.9958 130.144 14.9418C129.934 14.8878 129.574 14.8458 129.34 14.8518C129.112 14.8518 128.764 14.8998 128.572 14.9478C128.374 15.0018 128.074 15.1218 127.899 15.2178ZM112.082 12.9556C112.454 12.9736 112.928 13.0336 113.144 13.0876C113.354 13.1416 113.702 13.2676 113.912 13.3696C114.128 13.4656 114.476 13.6757 114.686 13.8377C114.902 13.9997 115.202 14.2997 115.358 14.5038C115.514 14.7078 115.736 15.0798 115.856 15.3259C115.976 15.5719 116.132 16.0039 116.204 16.286C116.276 16.568 116.36 17.1381 116.426 18.3022H109.309L109.351 18.5422C109.369 18.6743 109.447 18.9563 109.507 19.1663C109.573 19.3763 109.741 19.7064 109.873 19.8924C110.005 20.0784 110.203 20.3005 110.305 20.3785C110.413 20.4565 110.629 20.5885 110.791 20.6725C110.947 20.7505 111.223 20.8525 111.404 20.9005C111.584 20.9485 112.064 20.9905 112.496 20.9905C112.922 20.9905 113.534 20.9485 113.852 20.8945C114.17 20.8405 114.62 20.7325 114.848 20.6605C115.076 20.5885 115.376 20.4745 115.508 20.4085C115.64 20.3425 115.778 20.2824 115.814 20.2824C115.856 20.2824 115.88 20.6485 115.88 22.2027L115.526 22.3647C115.328 22.4547 114.92 22.5987 114.608 22.6887C114.296 22.7727 113.726 22.8808 113.336 22.9228C112.802 22.9768 112.442 22.9768 111.884 22.9228C111.476 22.8808 110.881 22.7727 110.563 22.6827C110.245 22.5927 109.783 22.4127 109.543 22.2807C109.297 22.1487 108.883 21.8426 108.619 21.5966C108.349 21.3506 108.013 20.9485 107.857 20.7025C107.701 20.4565 107.509 20.0364 107.419 19.7724C107.329 19.5084 107.221 19.0463 107.179 18.7523C107.131 18.4222 107.119 17.9602 107.143 17.6001C107.161 17.2641 107.239 16.76 107.311 16.478C107.383 16.196 107.557 15.7339 107.695 15.4519C107.833 15.1698 108.091 14.7678 108.259 14.5578C108.433 14.3477 108.775 14.0237 109.021 13.8377C109.267 13.6517 109.681 13.4176 109.939 13.3096C110.252 13.1857 110.576 13.0893 110.905 13.0216C111.235 12.9616 111.632 12.9376 112.082 12.9556ZM110.671 15.2478C110.479 15.3619 110.209 15.5839 110.065 15.7399C109.927 15.9019 109.741 16.166 109.657 16.334C109.573 16.502 109.501 16.664 109.501 16.7C109.501 16.742 110.311 16.766 111.806 16.766H114.11C114.044 16.292 113.984 16.0579 113.936 15.9319C113.882 15.8119 113.726 15.5839 113.588 15.4339C113.42 15.2478 113.216 15.1158 112.982 15.0258C112.784 14.9598 112.424 14.8878 112.178 14.8698C111.89 14.8578 111.596 14.8818 111.368 14.9418C111.175 14.9958 110.863 15.1338 110.671 15.2478ZM141.443 13.1176H143.579L143.573 16.334C143.573 19.3643 143.579 19.5744 143.699 19.9644C143.777 20.2044 143.921 20.4865 144.041 20.6305C144.155 20.7625 144.395 20.9425 144.576 21.0265C144.75 21.1105 145.086 21.2066 145.314 21.2366C145.56 21.2726 145.908 21.2726 146.154 21.2366C146.382 21.2066 146.718 21.1105 146.892 21.0265C147.072 20.9425 147.312 20.7625 147.426 20.6305C147.546 20.4865 147.696 20.2044 147.768 19.9644C147.888 19.5744 147.894 19.3643 147.894 13.1176H150L149.988 16.592C149.982 19.8804 149.976 20.0784 149.856 20.4445C149.784 20.6545 149.634 20.9725 149.52 21.1466C149.406 21.3266 149.208 21.5726 149.07 21.7046C148.938 21.8366 148.65 22.0467 148.44 22.1727C148.23 22.2987 147.822 22.4727 147.54 22.5627C147.216 22.6647 146.784 22.7427 146.382 22.7727C146.022 22.7907 145.446 22.7907 145.092 22.7667C144.69 22.7427 144.251 22.6647 143.933 22.5627C143.62 22.4613 143.317 22.3307 143.027 22.1727C142.817 22.0467 142.535 21.8366 142.397 21.7046C142.265 21.5726 142.061 21.3266 141.947 21.1466C141.839 20.9725 141.689 20.6545 141.617 20.4445C141.491 20.0844 141.485 19.8624 141.467 16.592L141.443 13.1176Z" fill="#1F447E"/>
<path d="M7.08681 22.7787H3.09033V24.1889H7.08681V28.4734H8.629V24.1889H12.6255V22.7787H8.629V18.4942H7.08681V22.7787Z" fill="#C72035"/>
<path d="M23.8349 22.7787H19.8384V24.1229H23.8349V28.4734H25.377V24.1229H29.3735V22.7787H25.377V18.4942H23.8349V22.7787Z" fill="#1F447E"/>
<path d="M15.5899 27.5793H12.8835V28.7975H15.5899V31.8038H16.94V28.7975H19.6464V27.5793H16.94V24.573H15.5899V27.5793Z" fill="#5B6591"/>
</svg>
