<svg width="1444" height="574" viewBox="0 0 1444 574" fill="none" xmlns="http://www.w3.org/2000/svg">
<g clip-path="url(#clip0_90_73)">
<g opacity="0.25">
<path opacity="0.24" d="M-402.661 278.634C-412.828 313.453 -355.132 349.051 -292.513 358.91C-229.88 368.783 -166.025 359.408 -108.126 347.357C-50.2022 335.32 7.06989 320.413 70.2822 319.015C201.127 316.135 321.061 370.382 422.835 422.66C524.607 474.937 636.968 532.053 768.904 537.412C872.345 541.604 964.629 512.54 1063.72 500.884C1236.7 480.529 1436.02 517.718 1566.07 594.65" stroke="#082A58" stroke-width="0.867" stroke-miterlimit="10"/>
<path opacity="0.24" d="M-403.002 269.003C-413.198 303.768 -356.064 339.382 -293.732 349.584C-288.16 350.502 -282.56 351.247 -276.96 351.882C-219.957 358.174 -162.298 349.846 -109.467 339.257C-99.2674 337.216 -89.0823 335.082 -78.8956 332.955C-31.0829 322.938 17.096 312.903 69.159 311.91C85.7706 311.595 102.542 312.178 119.244 313.651C230.572 323.36 332.546 370.448 420.488 416.263C426.874 419.598 433.3 422.942 439.765 426.294C535.48 475.923 640.105 526.019 762.04 533.529C796.84 535.605 831.521 534.695 864.887 530.832C904.927 526.349 943.933 518.196 982.407 510.436C1008.68 505.141 1034.85 500.019 1061.68 496.192C1074.3 494.393 1087.09 492.911 1100.06 491.746C1182.64 484.347 1271.77 490.567 1354.55 508.064C1437.52 525.606 1514.25 554.248 1575.86 591.294" stroke="#082A58" stroke-width="0.867" stroke-miterlimit="10"/>
<path opacity="0.24" d="M-403.329 259.374C-413.582 294.106 -357.025 329.719 -294.951 340.263C-289.393 341.205 -283.822 341.999 -278.237 342.646C-221.448 349.246 -163.772 341.342 -110.781 331.146C-100.566 329.17 -90.366 327.115 -80.1617 325.052C-32.2534 315.365 16.0335 305.604 68.0397 304.771C84.6502 304.505 101.41 305.127 118.095 306.628C229.403 316.579 330.949 363.737 418.176 409.826C424.51 413.173 430.89 416.545 437.281 419.915C532.088 469.847 634.997 519.677 755.255 529.577C790.393 532.477 825.071 532.725 860.052 529.27C901.401 525.191 941.484 516.341 980.198 507.698C1006.62 501.804 1032.74 495.966 1059.66 491.463C1072.33 489.35 1085.17 487.551 1098.29 486.11C1181.81 476.926 1274.28 482.888 1359.37 501.131C1444.84 519.554 1522.65 549.404 1585.65 587.944" stroke="#082A58" stroke-width="0.867" stroke-miterlimit="10"/>
<path opacity="0.24" d="M-403.684 249.751C-413.981 284.43 -358.015 320.063 -296.199 330.93C-290.684 331.9 -285.141 332.724 -279.571 333.405C-222.939 340.323 -165.26 332.849 -112.152 323.03C-101.908 321.131 -91.664 319.149 -81.4492 317.161C-33.4454 307.805 14.9223 298.323 66.9005 297.645C83.4939 297.426 100.228 298.083 116.884 299.61C228.126 309.79 329.274 357.016 415.804 403.393C422.098 406.768 428.407 410.151 434.733 413.543C528.64 463.792 629.906 513.395 748.396 525.651C783.837 529.315 819.075 530.823 855.155 527.712C897.827 524.052 938.972 514.49 977.914 504.95C1004.51 498.452 1030.54 491.889 1057.55 486.726C1070.26 484.289 1083.19 482.185 1096.45 480.469C1180.91 469.499 1276.71 475.191 1364.11 494.179C1451.69 513.196 1531.3 544.825 1595.37 584.567" stroke="#082A58" stroke-width="0.867" stroke-miterlimit="10"/>
<path opacity="0.24" d="M-404.024 240.107C-414.35 274.747 -358.962 310.385 -297.446 321.598C-291.931 322.604 -286.432 323.446 -280.89 324.166C-224.458 331.407 -166.763 324.342 -113.508 314.899C-103.249 313.083 -93.0054 311.162 -82.7326 309.234C-34.6347 300.209 13.8532 291.014 65.7888 290.476C82.371 290.304 99.0848 291.004 115.715 292.564C226.919 302.973 327.629 350.287 413.498 396.927C419.741 400.316 426.004 403.73 432.272 407.147C525.272 457.701 624.966 507.192 741.615 521.688C777.345 526.136 813.197 528.893 850.336 526.116C894.354 522.867 936.536 512.601 975.714 502.181C1002.45 495.069 1028.44 487.804 1055.57 481.961C1068.3 479.216 1081.34 476.807 1094.74 474.794C1180.12 462.024 1279.28 467.476 1368.98 487.194C1458.86 506.941 1539.91 540.069 1605.22 581.154" stroke="#082A58" stroke-width="0.867" stroke-miterlimit="10"/>
<path opacity="0.24" d="M-404.365 230.479C-414.749 265.072 -359.894 300.737 -298.68 312.282C-293.194 313.315 -287.694 314.2 -282.166 314.934C-225.934 322.5 -168.237 315.842 -114.836 306.792C-104.533 305.043 -94.2746 303.189 -84.0013 301.337C-35.8007 292.642 12.7938 283.717 64.6741 283.342C81.2521 283.216 97.9533 283.954 114.567 285.544C225.747 296.194 326.022 343.564 411.191 390.493C417.393 393.907 423.567 397.327 429.793 400.769C521.882 451.625 620.045 501.087 734.831 517.756C770.917 522.992 807.275 526.983 845.499 524.572C890.827 521.727 934.084 510.764 973.535 499.455C1000.45 491.74 1026.39 483.76 1053.57 477.249C1066.39 474.164 1079.55 471.471 1093 469.18C1179.32 454.624 1281.8 459.804 1373.81 480.269C1465.99 500.766 1548.49 535.373 1615.04 577.8" stroke="#082A58" stroke-width="0.867" stroke-miterlimit="10"/>
<path opacity="0.24" d="M-404.691 220.852C-415.104 255.407 -360.855 291.084 -299.884 302.958C-294.441 304.02 -288.941 304.935 -283.456 305.705C-227.396 313.573 -169.696 307.359 -116.193 298.675C-105.875 296.993 -95.587 295.231 -85.2846 293.446C-37.0072 285.067 11.6842 276.437 63.5335 276.213C80.1033 276.145 96.7842 276.925 113.375 278.544C224.519 289.419 324.385 336.875 408.84 384.078C414.988 387.504 421.132 390.949 427.273 394.413C518.452 445.572 615.158 495.082 727.995 513.83C764.426 519.874 801.318 525.094 840.624 523.01C887.273 520.583 931.592 508.909 971.27 496.705C998.335 488.392 1024.23 479.696 1051.49 472.511C1064.36 469.096 1077.61 466.098 1091.19 463.531C1178.45 447.191 1284.28 452.118 1378.59 473.311C1473.05 494.538 1557 530.643 1624.79 574.412" stroke="#082A58" stroke-width="0.867" stroke-miterlimit="10"/>
<path opacity="0.24" d="M-405.047 211.234C-415.532 245.739 -361.816 281.429 -301.146 293.637C-295.717 294.72 -290.261 295.665 -284.776 296.47C-228.916 304.661 -171.199 298.855 -117.549 290.564C-107.217 288.959 -96.8852 287.254 -86.5824 285.543C-38.1821 277.488 10.6047 269.15 62.3871 269.075C78.9426 269.048 95.6051 269.869 112.168 271.528C223.269 282.624 322.716 330.151 406.476 377.646C412.559 381.105 418.646 384.57 424.736 388.04C515.007 439.502 610.245 489.154 721.155 509.901C757.958 516.784 795.341 523.187 835.756 521.462C883.73 519.451 929.105 507.068 969.025 493.983C996.273 485.064 1022.08 475.662 1049.45 467.797C1062.36 464.062 1075.7 460.762 1089.41 457.913C1177.6 439.776 1286.76 444.448 1383.38 466.386C1480.16 488.358 1565.53 525.946 1634.53 571.063" stroke="#082A58" stroke-width="0.867" stroke-miterlimit="10"/>
<path opacity="0.24" d="M-405.402 201.594C-415.902 236.047 -362.792 271.759 -302.365 284.303C-296.965 285.431 -291.522 286.395 -286.066 287.228C-230.378 295.736 -172.688 290.366 -118.877 282.444C-108.501 280.92 -98.1687 279.292 -87.8511 277.649C-39.3423 269.925 9.55116 261.858 61.2767 261.94C77.8238 261.957 94.4678 262.812 111.012 264.492C222.069 275.84 321.113 323.432 404.164 371.199C410.191 374.67 416.225 378.16 422.269 381.668C511.606 433.439 605.417 483.281 714.375 505.958C751.562 513.694 789.464 521.271 830.908 519.887C880.184 518.28 926.638 505.201 966.799 491.236C994.192 481.722 1019.95 471.587 1047.4 463.049C1060.34 458.995 1073.77 455.393 1087.61 452.262C1176.73 432.343 1289.21 436.767 1388.15 459.426C1487.22 482.126 1574.05 521.226 1644.28 567.67" stroke="#082A58" stroke-width="0.867" stroke-miterlimit="10"/>
<path opacity="0.24" d="M-405.728 191.968C-416.3 226.392 -363.724 262.097 -303.598 274.988C-298.212 276.137 -292.798 277.143 -287.371 278.007C-231.883 286.822 -174.19 281.875 -120.233 274.328C-109.828 272.872 -99.4667 271.312 -89.1199 269.737C-40.517 262.34 8.46159 254.553 60.1548 254.79C76.6906 254.856 93.3161 255.752 109.836 257.466C220.856 269.041 319.481 316.703 401.859 364.753C407.835 368.236 413.813 371.757 419.791 375.278C508.22 427.353 600.599 477.478 707.586 501.997C745.146 510.608 783.552 519.345 826.093 518.304C876.685 517.115 924.216 503.34 964.631 488.472C992.19 478.34 1017.88 467.513 1045.44 458.295C1058.43 453.912 1071.95 450.007 1085.93 446.6C1175.98 424.883 1291.79 429.053 1393.04 452.456C1494.41 475.884 1582.7 516.477 1654.15 564.267" stroke="#082A58" stroke-width="0.867" stroke-miterlimit="10"/>
<path opacity="0.24" d="M-406.054 182.344C-416.67 216.716 -364.656 252.459 -304.832 265.663C-299.489 266.838 -294.103 267.872 -288.661 268.767C-233.344 277.9 -175.65 273.38 -121.547 266.209C-111.155 264.826 -100.765 263.334 -90.3888 261.826C-41.7035 254.745 7.40959 247.259 59.0358 247.641C75.5604 247.752 92.1657 248.689 108.662 250.441C219.644 262.24 317.848 309.974 399.529 358.314C405.466 361.826 411.386 365.354 417.29 368.898C504.815 421.274 595.762 471.759 700.791 498.06C738.739 507.56 777.619 517.426 821.261 516.727C873.177 515.955 921.766 501.47 962.407 485.708C990.141 474.972 1015.76 463.438 1043.4 453.547C1056.42 448.846 1070.03 444.639 1084.14 440.949C1175.12 417.45 1294.28 421.368 1397.83 445.514C1501.51 469.683 1591.23 511.76 1663.91 560.889" stroke="#082A58" stroke-width="0.867" stroke-miterlimit="10"/>
<path opacity="0.24" d="M-406.424 172.729C-417.083 207.068 -365.646 242.814 -306.065 256.352C-300.736 257.57 -295.38 258.636 -289.966 259.549C-234.85 269.005 -177.138 264.892 -122.932 258.103C-112.512 256.792 -102.077 255.379 -91.7008 253.946C-42.9142 247.194 6.30402 239.98 57.9008 240.515C74.4227 240.676 91.0168 241.652 107.496 243.431C218.456 255.471 316.214 303.282 397.209 351.89C403.1 355.412 408.953 358.979 414.814 362.547C501.429 415.227 590.9 466.119 694.009 494.135C732.33 504.547 771.715 515.535 816.42 515.185C869.641 514.815 919.304 499.636 960.185 482.995C988.072 471.663 1013.64 459.414 1041.36 448.85C1054.42 443.823 1068.12 439.311 1082.38 435.346C1174.31 410.068 1296.79 413.729 1402.64 438.603C1508.61 463.504 1599.77 507.074 1673.69 557.545" stroke="#082A58" stroke-width="0.867" stroke-miterlimit="10"/>
<path opacity="0.24" d="M-406.765 163.091C-417.468 197.378 -366.592 233.14 -307.298 247.027C-301.998 248.267 -296.641 249.366 -291.257 250.323C-236.311 260.101 -178.583 256.412 -124.245 249.998C-113.781 248.766 -103.361 247.416 -92.9549 246.05C-44.0741 239.627 5.22913 232.691 56.7964 233.38C73.3071 233.59 89.8827 234.608 106.339 236.421C217.263 248.686 314.6 296.569 394.905 345.466C400.751 349.016 406.561 352.588 412.338 356.18C498.062 409.181 586.018 460.544 687.241 490.211C725.951 501.548 765.834 513.62 811.609 513.62C866.148 513.666 916.869 497.778 958.02 480.251C986.084 468.317 1011.59 455.338 1039.41 444.118C1052.49 438.773 1066.28 433.96 1080.68 429.711C1173.53 402.639 1299.35 406.045 1407.5 431.663C1515.78 457.306 1608.36 502.357 1683.5 554.174" stroke="#082A58" stroke-width="0.867" stroke-miterlimit="10"/>
<path opacity="0.24" d="M-407.105 153.47C-417.852 187.726 -367.539 223.49 -308.502 237.711C-303.231 238.979 -297.903 240.109 -292.533 241.101C-237.773 251.181 -180.043 247.919 -125.573 241.88C-115.079 240.716 -104.644 239.454 -94.2239 238.14C-45.2418 232.045 4.18281 225.395 55.6846 226.231C72.1825 226.485 88.7397 227.543 105.171 229.392C216.033 241.889 312.993 289.852 392.582 339.024C398.348 342.593 404.116 346.2 409.844 349.797C494.663 403.1 581.084 454.981 680.473 486.247C719.532 498.538 759.942 511.689 806.81 512.03C862.67 512.494 914.449 495.896 955.826 477.475C984.027 464.93 1009.49 451.252 1037.4 439.36C1050.53 433.705 1064.4 428.59 1078.93 424.053C1172.71 395.202 1301.86 398.355 1412.31 424.699C1522.87 451.074 1616.89 497.617 1693.27 550.775" stroke="#082A58" stroke-width="0.867" stroke-miterlimit="10"/>
<path opacity="0.24" d="M-407.46 143.855C-418.25 178.059 -368.529 213.847 -309.764 228.394C-304.536 229.691 -299.208 230.849 -293.866 231.876C-239.307 242.279 -181.56 239.438 -126.944 233.775C-116.45 232.684 -105.957 231.485 -95.5069 230.254C-46.4122 224.468 3.10502 218.11 54.5514 219.105C71.0395 219.412 87.5766 220.504 103.989 222.369C214.817 235.09 311.352 283.126 390.274 332.581C396.001 336.177 401.716 339.796 407.369 343.411C491.282 397.017 576.15 449.473 673.71 482.302C713.137 495.561 754.043 509.759 801.979 510.448C859.143 511.313 911.97 494.028 953.613 474.722C981.987 461.573 1007.38 447.191 1035.39 434.62C1048.55 428.638 1062.52 423.219 1077.2 418.404C1171.93 387.773 1304.39 390.659 1417.14 417.745C1530.02 444.859 1625.47 492.886 1703.09 547.384" stroke="#082A58" stroke-width="0.867" stroke-miterlimit="10"/>
<path opacity="0.24" d="M-407.801 134.235C-418.634 168.409 -369.461 204.192 -310.997 219.087C-305.769 220.419 -300.484 221.608 -295.156 222.655C-240.754 233.374 -183.019 230.947 -128.285 225.678C-117.762 224.656 -107.269 223.53 -96.7755 222.367C-47.5968 216.91 2.00392 210.828 53.4223 211.978C69.8977 212.329 86.4177 213.462 102.806 215.363C213.61 228.326 309.727 276.434 387.939 326.161C393.614 329.77 399.258 333.405 404.874 337.065C487.883 390.974 571.13 444.061 666.918 478.381C706.654 492.621 748.124 507.867 797.155 508.899C855.635 510.181 909.521 492.188 951.406 472.003C979.937 458.261 1005.28 443.164 1033.37 429.92C1046.56 423.624 1060.62 417.904 1075.43 412.805C1171.08 380.382 1306.89 383.028 1421.93 410.842C1537.1 438.683 1633.98 488.203 1712.84 544.037" stroke="#082A58" stroke-width="0.867" stroke-miterlimit="10"/>
<path opacity="0.24" d="M-408.141 124.601C-419.018 158.721 -370.422 194.544 -312.202 209.758C-307.017 211.119 -301.76 212.34 -296.447 213.419C-242.23 224.461 -184.493 222.439 -129.613 217.546C-119.046 216.606 -108.538 215.548 -98.0443 214.459C-48.7643 209.33 0.959277 203.534 52.3092 204.827C68.7733 205.229 85.2747 206.402 101.639 208.337C212.407 221.524 308.105 269.704 385.624 319.722C391.254 323.358 396.843 327.012 402.389 330.685C484.494 384.898 566.087 438.623 660.152 474.442C700.189 489.685 742.246 505.937 792.345 507.317C852.143 509.015 907.087 490.313 949.239 469.244C977.947 454.899 1003.2 439.081 1031.39 425.181C1044.6 418.563 1058.74 412.542 1073.7 407.166C1170.29 372.965 1309.41 375.344 1426.76 403.899C1544.23 432.482 1642.54 483.481 1722.63 540.653" stroke="#082A58" stroke-width="0.867" stroke-miterlimit="10"/>
<path opacity="0.24" d="M-408.468 114.982C-419.374 149.066 -371.368 184.897 -313.449 200.438C-308.264 201.819 -303.036 203.078 -297.737 204.184C-243.721 215.533 -185.953 213.947 -130.941 209.428C-120.345 208.556 -109.822 207.571 -99.3132 206.549C-49.9333 201.751 -0.101571 196.224 51.1944 197.678C67.6544 198.123 84.1445 199.335 100.493 201.304C211.226 214.717 306.507 262.969 383.332 313.277C388.914 316.926 394.435 320.612 399.92 324.299C481.124 378.816 560.984 433.217 653.39 470.477C693.713 486.744 736.359 504 787.505 505.715C848.607 507.814 904.62 488.419 947.001 466.458C975.861 451.517 1001.06 434.987 1029.36 420.409C1042.61 413.474 1056.85 407.15 1071.96 401.487C1169.47 365.495 1311.93 367.634 1431.57 396.918C1551.33 426.228 1651.08 478.723 1732.38 537.237" stroke="#082A58" stroke-width="0.867" stroke-miterlimit="10"/>
<path opacity="0.24" d="M-408.837 105.37C-419.801 139.409 -372.329 175.252 -314.668 191.134C-309.526 192.556 -304.312 193.836 -299.028 194.972C-245.197 206.637 -187.441 205.464 -132.283 201.319C-121.686 200.52 -111.105 199.612 -100.611 198.649C-51.1268 194.179 -1.21424 188.929 50.0826 190.532C66.5313 191.029 83 192.283 99.3271 194.281C210.012 207.94 304.9 256.258 381.02 306.841C386.563 310.516 392.037 314.209 397.442 317.919C477.74 372.738 555.869 427.855 646.633 466.537C687.217 483.833 730.464 502.073 782.721 504.142C845.139 506.657 902.227 486.569 944.833 463.715C973.855 448.158 999.021 430.931 1027.36 415.674C1040.64 408.424 1054.96 401.799 1070.21 395.853C1168.68 358.077 1314.43 359.956 1436.38 389.996C1558.43 420.031 1659.62 474.018 1742.16 533.872" stroke="#082A58" stroke-width="0.867" stroke-miterlimit="10"/>
<path opacity="0.24" d="M-409.164 95.751C-420.171 129.753 -373.291 165.605 -315.902 181.829C-310.788 183.281 -305.589 184.58 -300.347 185.759C-246.702 197.748 -188.915 196.993 -133.625 193.222C-123 192.492 -112.418 191.657 -101.851 190.77C-52.2845 186.613 -2.23616 181.664 49.0038 183.425C65.4327 183.971 81.877 185.26 98.1754 187.277C208.826 201.162 303.269 249.559 378.745 300.419C384.209 304.113 389.661 307.829 395.038 311.564C474.433 366.688 550.735 422.522 639.937 462.604C680.734 480.942 724.642 500.167 777.979 502.564C841.715 505.494 899.859 484.699 942.707 460.967C971.907 444.809 996.997 426.876 1025.42 410.947C1038.73 403.375 1053.15 396.446 1068.55 390.22C1167.96 350.666 1317.04 352.293 1441.28 383.06C1565.63 413.837 1668.27 469.294 1752.02 530.49" stroke="#082A58" stroke-width="0.867" stroke-miterlimit="10"/>
<path opacity="0.24" d="M-409.519 86.1193C-420.584 120.077 -374.251 155.946 -317.135 172.508C-312.035 173.982 -306.865 175.32 -301.623 176.523C-248.164 188.811 -190.389 188.488 -134.967 185.109C-124.312 184.462 -113.701 183.679 -103.134 182.866C-53.4734 179.036 -3.3155 174.358 47.8705 176.279C64.2881 176.871 80.7139 178.202 96.9908 180.257C207.608 194.37 301.647 242.854 376.418 293.987C381.844 297.709 387.218 301.444 392.541 305.191C471.01 360.625 545.459 417.184 633.154 458.653C674.16 478.034 718.748 498.222 773.137 500.987C838.176 504.319 897.39 482.83 940.492 458.201C969.844 441.448 994.885 422.802 1023.42 406.196C1036.76 398.313 1051.26 391.085 1066.8 384.574C1167.13 343.232 1319.54 344.604 1446.08 376.111C1572.72 407.616 1676.81 464.58 1761.78 527.1" stroke="#082A58" stroke-width="0.867" stroke-miterlimit="10"/>
<path opacity="0.24" d="M-409.845 76.5027C-420.939 110.423 -375.169 146.314 -318.354 163.186C-313.283 164.687 -308.112 166.068 -302.914 167.296C-249.626 179.906 -191.834 180.001 -136.295 176.985C-125.611 176.4 -114.985 175.71 -104.389 174.965C-54.6065 171.457 -4.39225 167.062 46.7629 169.136C63.1764 169.779 79.5909 171.149 95.8536 173.231C206.449 187.576 300.057 236.117 374.139 287.54C379.513 291.274 384.848 295.036 390.092 298.802C467.673 354.553 540.195 411.857 626.432 454.701C667.607 475.151 712.9 496.296 768.368 499.388C834.722 503.134 894.994 480.938 938.338 455.432C967.867 438.078 992.819 418.712 1021.45 401.45C1034.81 393.253 1049.4 385.722 1065.08 378.926C1166.35 335.809 1322.05 336.935 1450.91 369.163C1579.85 401.408 1685.36 459.85 1771.58 523.705" stroke="#082A58" stroke-width="0.867" stroke-miterlimit="10"/>
<path opacity="0.24" d="M-410.214 66.8941C-421.367 100.77 -376.144 136.675 -319.601 153.888C-314.53 155.426 -309.417 156.827 -304.247 158.089C-251.159 171.021 -193.351 171.522 -137.651 168.894C-126.967 168.388 -116.297 167.754 -105.686 167.083C-55.807 163.903 -5.48877 159.777 45.6153 162.012C62.016 162.696 78.4121 164.106 94.6519 166.228C205.212 180.803 298.418 229.432 371.788 281.132C377.123 284.893 382.385 288.668 387.574 292.454C464.253 348.51 534.772 406.576 619.626 450.773C660.937 472.283 706.955 494.378 763.528 497.826C831.224 501.982 892.527 479.085 936.108 452.703C965.775 434.74 990.692 414.677 1019.43 396.738C1032.82 388.221 1047.5 380.386 1063.34 373.309C1165.55 328.418 1324.56 329.276 1455.72 362.244C1586.95 395.215 1693.89 455.149 1781.31 520.348" stroke="#082A58" stroke-width="0.867" stroke-miterlimit="10"/>
<path opacity="0.24" d="M-410.541 57.2785C-421.722 91.1182 -377.105 127.032 -320.805 144.58C-315.778 146.145 -310.665 147.574 -305.494 148.866C-252.564 162.114 -194.767 163.041 -138.95 160.771C-128.236 160.331 -117.566 159.797 -106.94 159.169C-56.9702 156.303 -6.51217 152.476 44.5249 154.855C60.9158 155.592 77.2935 157.043 93.5118 159.195C204.01 173.999 296.824 222.694 369.503 274.684C374.785 278.457 380.005 282.265 385.13 286.077C460.913 342.436 529.41 401.25 612.916 446.834C654.32 469.433 701.119 492.463 758.744 496.244C827.74 500.8 890.114 477.211 933.963 449.947C963.806 431.383 988.643 410.617 1017.47 392.007C1030.9 383.182 1045.66 375.047 1061.63 367.68C1164.76 321 1327.11 321.619 1460.56 355.311C1594.06 389.031 1702.45 450.434 1791.11 516.968" stroke="#082A58" stroke-width="0.867" stroke-miterlimit="10"/>
<path opacity="0.24" d="M-410.896 47.6487C-422.135 81.4457 -378.052 117.369 -322.054 135.251C-317.069 136.844 -311.956 138.317 -306.814 139.63C-254.098 153.185 -196.285 154.532 -140.336 152.656C-129.578 152.284 -118.879 151.822 -108.21 151.27C-58.154 148.732 -7.61213 145.181 43.3969 147.713C59.7809 148.493 76.1471 149.983 92.3498 152.169C202.83 167.215 295.215 215.963 367.199 268.244C372.442 272.045 377.582 275.872 382.655 279.695C457.533 336.358 523.94 395.939 606.184 442.866C647.668 466.536 695.292 490.514 753.978 494.642C824.291 499.613 887.718 475.318 931.796 447.162C961.792 428.004 986.583 406.525 1015.48 387.245C1028.94 378.101 1043.8 369.662 1059.93 362.013C1163.99 313.56 1329.65 313.913 1465.4 348.347C1601.18 382.791 1711.01 445.686 1800.91 513.556" stroke="#082A58" stroke-width="0.867" stroke-miterlimit="10"/>
<path opacity="0.24" d="M-424.056 19.8272C-435.324 53.5861 -391.833 89.5211 -336.077 107.734C-331.093 109.365 -326.037 110.849 -320.88 112.217C-268.336 126.084 -210.506 127.857 -154.425 126.355C-143.667 126.07 -132.939 125.649 -122.255 125.177C-72.0962 122.967 -21.446 119.686 29.535 122.371C45.9005 123.206 62.241 124.731 78.4192 126.934C188.865 142.204 280.846 191.045 352.151 243.594C357.342 247.407 362.438 251.244 367.44 255.104C441.418 312.071 505.691 372.41 586.705 420.711C628.234 445.482 676.668 470.367 736.448 474.835C808.074 480.221 872.559 455.22 916.874 426.188C947.046 406.431 971.776 384.226 1000.77 364.293C1014.26 354.838 1029.21 346.098 1045.47 338.163C1150.46 287.922 1319.45 288.036 1457.52 323.206C1595.6 358.376 1706.86 422.76 1797.99 491.966" stroke="#082A58" stroke-width="0.867" stroke-miterlimit="10"/>
<path opacity="0.24" d="M-411.592 28.4263C-422.932 62.1405 -379.945 98.1032 -324.491 116.647C-319.549 118.305 -314.508 119.829 -309.38 121.219C-257.007 135.411 -199.189 137.589 -142.962 136.46C-132.175 136.245 -121.403 135.902 -110.732 135.49C-60.4757 133.607 -9.70288 130.611 41.2112 133.44C57.5625 134.324 73.8843 135.891 90.0382 138.129C200.451 153.622 292.011 202.535 362.633 255.373C367.758 259.219 372.792 263.071 377.764 266.956C450.843 324.226 512.943 385.315 592.753 434.982C634.312 460.841 683.59 486.661 744.437 491.477C817.367 497.262 882.918 471.569 927.476 441.662C957.8 421.311 982.479 398.394 1011.56 377.792C1025.07 368.025 1040.1 358.985 1056.51 350.765C1162.43 298.753 1334.75 298.614 1475.1 334.508C1615.48 370.418 1728.16 436.278 1820.52 506.819" stroke="#082A58" stroke-width="0.867" stroke-miterlimit="10"/>
<path opacity="0.24" d="M-411.932 18.8119C-423.287 52.4908 -380.906 88.4625 -325.724 107.348C-320.782 109.027 -315.769 110.589 -310.685 112.011C-258.497 126.504 -200.663 129.108 -144.289 128.366C-133.473 128.217 -122.715 127.949 -112.001 127.621C-61.6374 126.065 -10.7851 123.344 40.1023 126.325C56.4496 127.252 72.7616 128.858 88.9027 131.127C199.283 146.848 290.419 195.856 360.359 248.963C365.432 252.822 370.421 256.702 375.321 260.604C447.498 318.177 507.365 380.013 586.047 431.065C627.583 458.019 677.77 484.745 739.681 489.908C813.921 496.109 880.545 469.724 925.343 438.905C955.83 417.938 980.449 394.334 1009.64 373.055C1023.17 362.971 1038.3 353.626 1054.86 345.123C1161.72 291.338 1337.34 290.931 1480 327.567C1622.65 364.201 1736.77 431.551 1830.37 503.427" stroke="#082A58" stroke-width="0.867" stroke-miterlimit="10"/>
<path opacity="0.24" d="M-412.273 9.18579C-423.701 42.8191 -381.867 78.8091 -326.943 98.0137C-322.044 99.7197 -317.045 101.304 -311.961 102.763C-259.959 117.576 -202.108 120.6 -145.602 120.216C-134.757 120.134 -123.956 119.95 -113.256 119.679C-62.7847 118.431 -11.8344 115.998 39.0005 119.14C55.3351 120.119 71.6271 121.765 87.7482 124.064C198.08 140.031 288.808 189.088 358.061 242.487C363.096 246.373 368.026 250.274 372.853 254.186C444.134 312.066 501.724 374.637 579.305 427.067C620.817 455.118 671.897 482.771 734.902 488.273C810.453 494.89 878.135 467.798 923.175 436.104C953.838 414.536 978.382 390.227 1007.66 368.28C1021.4 357.974 1036.21 348.185 1053.14 339.451C1160.92 283.88 1339.87 283.235 1484.81 320.597C1629.76 357.971 1745.3 426.794 1840.11 500.013" stroke="#082A58" stroke-width="0.867" stroke-miterlimit="10"/>
<path opacity="0.24" d="M-412.642 -0.419048C-424.099 33.1809 -382.828 69.173 -328.19 88.7228C-323.32 90.473 -318.321 92.0808 -313.28 93.5649C-261.478 108.7 -203.625 112.124 -146.988 112.139C-136.142 112.145 -125.311 112.013 -114.539 111.818C-63.9796 110.896 -12.908 108.749 37.8615 112.036C54.1818 113.057 70.4554 114.745 86.5522 117.083C196.866 133.271 287.19 182.421 355.736 236.092C360.719 239.99 365.593 243.91 370.36 247.85C440.742 306.031 496.017 369.332 572.552 423.162C613.977 452.308 666.008 480.872 730.07 486.722C806.924 493.737 875.67 465.956 920.951 433.387C951.767 411.227 976.262 386.207 1005.61 363.574C1019.41 352.957 1034.25 342.863 1051.34 333.85C1160.06 276.508 1342.32 275.595 1489.55 313.694C1636.78 351.792 1753.76 422.107 1849.8 496.658" stroke="#082A58" stroke-width="0.867" stroke-miterlimit="10"/>
<path opacity="0.24" d="M-412.969 -10.0327C-424.469 23.5158 -383.789 59.5332 -329.395 79.4174C-324.539 81.1887 -319.583 82.8446 -314.527 84.344C-262.883 99.7949 -205.027 103.65 -148.272 104.016C-137.397 104.092 -126.537 104.024 -115.779 103.903C-65.1084 103.307 -13.953 101.437 36.7884 104.875C53.0975 105.943 69.3554 107.663 85.4378 110.024C195.707 126.439 285.622 175.661 353.506 229.616C358.45 233.541 363.249 237.484 367.973 241.446C437.475 299.947 490.406 363.947 565.896 419.178C607.233 449.418 660.23 478.907 725.38 485.099C803.547 492.529 873.348 464.041 918.87 430.597C949.862 407.837 974.269 382.099 1003.74 358.806C1017.56 347.868 1032.51 337.471 1049.75 328.179C1159.4 269.066 1344.97 267.903 1494.49 306.727C1644.03 345.566 1762.44 417.348 1859.69 493.24" stroke="#082A58" stroke-width="0.867" stroke-miterlimit="10"/>
<path opacity="0.24" d="M-413.309 -19.6434C-425.889 16.864 -377.158 56.3498 -315.832 75.1405C-254.506 93.916 -184.096 96.3844 -117.047 96.0214C-49.9917 95.6574 17.9718 93.0054 84.2906 103.012C202.523 120.871 296.934 176.293 365.495 235.088C434.095 293.893 484.638 358.604 559.148 415.237C600.372 446.578 654.364 476.968 720.581 483.505C800.059 491.349 870.918 462.154 916.692 427.816C962.466 393.476 993.602 352.5 1048.01 322.529C1158.58 261.631 1347.48 260.219 1499.29 299.78C1651.1 339.34 1770.96 412.613 1869.44 489.839" stroke="#082A58" stroke-width="0.867" stroke-miterlimit="10"/>
</g>
</g>
<defs>
<clipPath id="clip0_90_73">
<rect width="1439.35" height="565.719" fill="white" transform="translate(1443.02 565.73) rotate(179.689)"/>
</clipPath>
</defs>
</svg>
